{"glyphs":{"0":{"ha":854,"x_min":35,"x_max":839,"o":"m 538 967 q 692 928 624 967 q 800 820 761 889 q 839 667 839 751 q 838 644 838 657 q 836 619 838 631 l 796 333 q 729 157 782 236 q 592 32 676 78 q 400 -14 507 -14 l 338 -14 q 183 26 253 -14 q 74 133 114 65 q 35 285 35 201 q 39 333 35 308 l 79 619 q 150 801 93 722 q 292 924 207 881 q 475 967 378 967 l 538 967 m 479 767 q 400 740 432 767 q 360 656 368 713 l 310 299 q 308 281 308 294 q 333 214 308 240 q 396 188 357 188 q 478 219 447 188 q 517 299 510 250 l 568 672 q 543 740 568 713 q 479 767 518 767 z "},"1":{"ha":854,"x_min":46,"x_max":761,"o":"m 558 213 l 761 213 l 732 0 l 46 0 l 75 213 l 286 213 l 349 657 l 138 657 l 160 817 q 365 866 249 822 q 571 967 482 910 l 664 967 l 558 213 z "},"2":{"ha":854,"x_min":-6,"x_max":829,"o":"m 529 967 q 749 895 668 967 q 829 706 829 824 q 782 532 829 607 q 667 405 735 457 q 486 285 600 353 q 403 233 431 251 l 768 233 l 736 0 l -6 0 l 1 50 q 44 186 13 131 q 144 290 76 242 q 211 338 215 340 q 437 503 375 454 q 522 585 499 551 q 546 665 546 619 q 522 726 546 701 q 461 750 499 750 l 443 750 q 371 722 403 750 q 333 653 339 694 l 328 614 l 83 614 q 143 801 90 721 q 285 924 196 881 q 486 967 374 967 l 529 967 z "},"3":{"ha":854,"x_min":10,"x_max":828,"o":"m 529 967 q 687 937 619 967 q 791 855 754 907 q 828 739 828 803 q 781 593 828 660 q 665 499 735 526 q 761 426 728 475 q 794 307 794 378 q 740 134 794 207 q 594 24 686 61 q 392 -14 503 -14 l 333 -14 q 94 52 178 -14 q 10 224 10 118 q 13 267 10 236 l 17 290 l 260 290 q 258 272 258 286 q 282 215 258 236 q 357 193 306 193 l 394 193 q 488 228 454 193 q 522 321 522 263 q 499 381 522 360 q 438 401 475 401 l 293 401 l 317 572 l 439 572 q 517 601 483 572 q 550 683 550 631 q 526 738 550 717 q 465 760 503 760 l 440 760 q 368 734 400 760 q 331 672 336 708 l 99 672 q 151 824 99 757 q 293 928 204 890 q 488 967 382 967 l 529 967 z "},"4":{"ha":854,"x_min":4,"x_max":817,"o":"m 571 967 q 490 790 553 897 q 348 577 426 682 q 211 414 269 472 l 419 414 l 440 556 q 546 711 483 607 q 631 875 608 815 l 746 875 l 681 414 l 817 414 l 789 210 l 653 210 l 624 0 l 363 0 l 392 210 l 4 210 l 32 417 q 198 696 101 519 q 325 967 294 872 l 571 967 z "},"5":{"ha":854,"x_min":24,"x_max":810,"o":"m 778 717 l 374 717 l 342 575 q 528 638 429 638 q 724 568 653 638 q 796 374 796 499 q 741 174 796 263 q 592 35 686 85 q 385 -14 499 -14 l 343 -14 q 171 22 243 -14 q 61 122 99 58 q 24 265 24 185 l 24 289 q 26 311 24 297 l 271 311 q 269 296 269 307 q 297 228 269 256 q 367 200 325 200 l 390 200 q 481 238 440 200 q 521 342 521 276 q 493 410 521 382 q 424 438 465 438 l 404 438 q 354 428 374 438 q 320 406 335 418 q 299 390 306 394 l 85 421 l 199 953 l 810 953 l 778 717 z "},"6":{"ha":854,"x_min":39,"x_max":825,"o":"m 531 967 q 742 897 658 967 q 825 701 825 828 q 821 647 825 675 l 574 647 l 575 676 q 550 735 574 713 q 490 758 526 758 l 482 758 q 403 728 439 758 q 360 654 367 697 l 343 535 q 434 589 383 571 q 528 607 485 607 q 726 545 650 607 q 801 368 801 483 q 745 166 801 253 q 595 33 689 79 q 393 -14 501 -14 l 354 -14 q 191 25 263 -14 q 79 133 119 64 q 39 289 39 201 q 82 619 39 325 q 154 797 94 717 q 303 922 214 876 q 492 967 393 967 l 531 967 m 435 446 q 358 415 393 446 q 317 342 322 385 l 308 285 q 307 276 307 282 l 307 269 q 333 206 307 232 q 399 181 358 181 l 407 181 q 486 212 450 181 q 525 285 522 243 l 535 356 q 509 422 535 397 q 443 446 483 446 l 435 446 z "},"7":{"ha":854,"x_min":121,"x_max":868,"o":"m 850 826 q 576 453 682 631 q 442 82 471 275 l 429 0 l 121 0 q 256 355 146 181 q 533 714 365 529 l 128 714 l 161 953 l 868 953 l 850 826 z "},"8":{"ha":854,"x_min":29,"x_max":811,"o":"m 504 967 q 725 903 639 967 q 811 728 811 840 q 774 586 811 639 q 672 488 738 533 l 671 482 q 756 404 728 444 q 783 303 783 364 q 743 153 783 225 q 610 34 703 82 q 367 -14 517 -14 q 120 48 211 -14 q 29 224 29 110 q 74 378 29 319 q 203 482 118 436 l 204 488 q 142 556 163 522 q 121 644 121 590 q 174 817 121 743 q 314 928 226 890 q 504 967 401 967 m 479 786 q 406 758 439 786 q 368 689 374 729 l 364 657 q 363 642 363 653 q 387 583 363 606 q 449 560 411 560 q 522 588 489 560 q 560 657 556 617 l 564 701 q 540 763 564 739 q 479 786 517 786 m 426 410 q 354 381 386 410 q 315 313 322 353 l 308 267 q 307 253 307 264 q 331 193 307 217 q 393 169 354 169 q 466 197 435 169 q 504 267 497 225 l 511 325 q 488 386 511 363 q 426 410 464 410 z "},"9":{"ha":854,"x_min":47,"x_max":833,"o":"m 518 967 q 681 928 610 967 q 793 821 753 889 q 833 667 833 753 q 790 333 833 628 q 721 154 776 233 q 577 31 665 75 q 381 -14 489 -14 l 342 -14 q 130 55 213 -14 q 47 251 47 124 q 51 306 47 276 l 299 306 q 297 294 297 301 l 297 278 q 322 219 297 244 q 382 194 346 194 l 390 194 q 473 224 442 194 q 513 299 504 253 l 529 418 q 438 364 489 382 q 344 346 388 346 q 146 408 222 346 q 69 585 69 469 q 126 782 69 694 q 278 918 183 869 q 479 967 372 967 l 518 967 m 465 772 q 388 742 424 772 q 347 668 353 711 l 340 621 q 339 613 340 619 q 338 596 338 606 q 363 533 338 558 q 429 507 389 507 l 438 507 q 515 538 479 507 q 556 611 550 568 l 565 682 q 539 747 565 721 q 474 772 513 772 l 465 772 z "},"\u0000":{"ha":0,"x_min":0,"x_max":0,"o":""},"\r":{"ha":267,"x_min":0,"x_max":0,"o":""}," ":{"ha":267,"x_min":0,"x_max":0,"o":""},"A":{"ha":985,"x_min":-61,"x_max":936,"o":"m 753 953 l 936 0 l 633 0 l 600 169 l 297 169 l 218 0 l -61 0 l 390 953 l 753 953 m 522 660 l 515 660 l 393 371 l 563 371 l 522 660 z "},"Á":{"ha":985,"x_min":-61,"x_max":936,"o":"m 860 1243 l 861 1239 l 658 1042 l 494 1042 l 650 1243 l 860 1243 m 753 953 l 936 0 l 633 0 l 600 169 l 297 169 l 218 0 l -61 0 l 390 953 l 753 953 m 522 660 l 515 660 l 393 371 l 563 371 l 522 660 z "},"Ă":{"ha":985,"x_min":-61,"x_max":936,"o":"m 753 953 l 936 0 l 633 0 l 600 169 l 297 169 l 218 0 l -61 0 l 390 953 l 753 953 m 522 660 l 515 660 l 393 371 l 563 371 l 522 660 m 867 1267 q 830 1188 867 1228 q 731 1121 793 1147 q 599 1094 669 1094 q 466 1121 528 1094 q 368 1188 404 1147 q 332 1267 332 1228 l 465 1267 q 484 1246 465 1258 q 533 1224 503 1233 q 599 1214 564 1214 q 665 1224 633 1214 q 715 1246 696 1233 q 735 1267 735 1258 l 867 1267 z "},"Â":{"ha":985,"x_min":-61,"x_max":936,"o":"m 693 1244 l 857 1043 l 676 1043 l 589 1150 l 471 1043 l 293 1043 l 515 1244 l 693 1244 m 753 953 l 936 0 l 633 0 l 600 169 l 297 169 l 218 0 l -61 0 l 390 953 l 753 953 m 522 660 l 515 660 l 393 371 l 563 371 l 522 660 z "},"Ä":{"ha":985,"x_min":-61,"x_max":936,"o":"m 557 1246 l 528 1042 l 317 1042 l 346 1246 l 557 1246 m 863 1246 l 833 1042 l 622 1042 l 651 1246 l 863 1246 m 753 953 l 936 0 l 633 0 l 600 169 l 297 169 l 218 0 l -61 0 l 390 953 l 753 953 m 522 660 l 515 660 l 393 371 l 563 371 l 522 660 z "},"À":{"ha":985,"x_min":-61,"x_max":936,"o":"m 558 1243 l 656 1042 l 492 1042 l 344 1239 l 349 1243 l 558 1243 m 753 953 l 936 0 l 633 0 l 600 169 l 297 169 l 218 0 l -61 0 l 390 953 l 753 953 m 522 660 l 515 660 l 393 371 l 563 371 l 522 660 z "},"Ā":{"ha":985,"x_min":-61,"x_max":936,"o":"m 753 953 l 936 0 l 633 0 l 600 169 l 297 169 l 218 0 l -61 0 l 390 953 l 753 953 m 522 660 l 515 660 l 393 371 l 563 371 l 522 660 m 807 1265 l 807 1163 l 365 1163 l 365 1265 l 807 1265 z "},"Ą":{"ha":985,"x_min":-61,"x_max":969,"o":"m 753 953 l 936 0 l 633 0 l 600 169 l 297 169 l 218 0 l -61 0 l 390 953 l 753 953 m 522 660 l 515 660 l 393 371 l 563 371 l 522 660 m 886 0 q 829 -40 850 -21 q 808 -86 808 -58 q 825 -115 808 -106 q 864 -125 842 -125 q 960 -106 904 -125 l 969 -165 q 819 -199 897 -199 q 733 -178 768 -199 q 699 -115 699 -158 q 723 -52 699 -79 q 789 0 747 -25 l 886 0 z "},"Å":{"ha":985,"x_min":-61,"x_max":936,"o":"m 610 1301 q 697 1267 663 1301 q 731 1182 731 1233 q 683 1069 731 1115 q 569 1022 636 1022 q 482 1056 517 1022 q 447 1143 447 1090 q 496 1254 447 1207 q 610 1301 544 1301 m 596 1210 q 556 1194 572 1210 q 540 1154 540 1178 q 552 1124 540 1136 q 583 1113 564 1113 q 622 1126 606 1113 q 639 1167 639 1140 q 627 1198 639 1186 q 596 1210 615 1210 m 753 953 l 936 0 l 633 0 l 600 169 l 297 169 l 218 0 l -61 0 l 390 953 l 753 953 m 522 660 l 515 660 l 393 371 l 563 371 l 522 660 z "},"Ã":{"ha":985,"x_min":-61,"x_max":936,"o":"m 907 1235 q 868 1138 899 1183 q 790 1065 838 1093 q 683 1036 742 1036 q 626 1043 653 1036 q 557 1065 599 1050 q 499 1085 524 1078 q 451 1092 475 1092 q 406 1076 426 1092 q 374 1036 386 1061 l 263 1036 q 301 1133 271 1088 q 380 1206 332 1178 q 485 1235 428 1235 q 543 1227 515 1235 q 611 1206 571 1219 q 717 1179 678 1179 q 762 1194 742 1179 q 794 1235 782 1210 l 907 1235 m 753 953 l 936 0 l 633 0 l 600 169 l 297 169 l 218 0 l -61 0 l 390 953 l 753 953 m 522 660 l 515 660 l 393 371 l 563 371 l 522 660 z "},"Æ":{"ha":1404,"x_min":-74,"x_max":1443,"o":"m 1443 953 l 1385 733 l 892 733 l 892 594 l 1349 594 l 1319 382 l 911 382 l 911 228 l 1308 228 l 1308 0 l 610 0 l 610 169 l 307 169 l 203 0 l -74 0 l 511 953 l 1443 953 m 601 660 l 594 660 l 432 371 l 601 371 l 601 660 z "},"B":{"ha":911,"x_min":22,"x_max":897,"o":"m 679 953 q 792 926 742 953 q 869 853 842 899 q 897 750 897 807 q 842 581 897 640 q 706 497 788 521 l 704 492 q 856 303 856 454 q 818 156 856 226 q 712 43 781 86 q 553 0 643 0 l 22 0 l 157 953 l 679 953 m 396 750 l 374 588 l 533 588 q 586 608 561 588 q 613 657 611 629 l 615 690 q 599 733 615 717 q 556 750 582 750 l 396 750 m 344 385 l 322 221 l 499 221 q 551 242 526 221 q 578 290 576 263 l 581 325 q 564 368 581 351 q 521 385 547 385 l 344 385 z "},"C":{"ha":950,"x_min":38,"x_max":943,"o":"m 592 967 q 847 882 750 967 q 943 639 943 797 q 938 563 943 597 l 664 563 l 671 611 q 672 622 672 615 l 672 635 q 639 719 672 688 q 551 750 606 750 l 544 750 q 435 711 476 750 q 386 611 394 672 l 349 343 q 347 333 347 340 l 347 324 q 381 238 347 272 q 468 204 415 204 l 488 204 q 646 343 624 204 l 653 389 l 914 389 q 769 93 886 200 q 465 -14 651 -14 l 426 -14 q 226 28 314 -14 q 88 148 138 69 q 38 336 38 226 q 44 401 38 351 q 64 550 50 451 q 149 768 81 674 q 322 915 217 863 q 553 967 428 967 l 592 967 z "},"Ć":{"ha":950,"x_min":38,"x_max":943,"o":"m 592 967 q 847 882 750 967 q 943 639 943 797 q 938 563 943 597 l 664 563 l 671 611 q 672 622 672 615 l 672 635 q 639 719 672 688 q 551 750 606 750 l 544 750 q 435 711 476 750 q 386 611 394 672 l 349 343 q 347 333 347 340 l 347 324 q 381 238 347 272 q 468 204 415 204 l 488 204 q 646 343 624 204 l 653 389 l 914 389 q 769 93 886 200 q 465 -14 651 -14 l 426 -14 q 226 28 314 -14 q 88 148 138 69 q 38 336 38 226 q 44 401 38 351 q 64 550 50 451 q 149 768 81 674 q 322 915 217 863 q 553 967 428 967 l 592 967 m 851 1243 l 853 1239 l 650 1042 l 486 1042 l 642 1243 l 851 1243 z "},"Č":{"ha":950,"x_min":38,"x_max":943,"o":"m 592 967 q 847 882 750 967 q 943 639 943 797 q 938 563 943 597 l 664 563 l 671 611 q 672 622 672 615 l 672 635 q 639 719 672 688 q 551 750 606 750 l 544 750 q 435 711 476 750 q 386 611 394 672 l 349 343 q 347 333 347 340 l 347 324 q 381 238 347 272 q 468 204 415 204 l 488 204 q 646 343 624 204 l 653 389 l 914 389 q 769 93 886 200 q 465 -14 651 -14 l 426 -14 q 226 28 314 -14 q 88 148 138 69 q 38 336 38 226 q 44 401 38 351 q 64 550 50 451 q 149 768 81 674 q 322 915 217 863 q 553 967 428 967 l 592 967 m 924 1243 l 701 1042 l 524 1042 l 360 1243 l 540 1243 l 628 1136 l 746 1243 l 924 1243 z "},"Ç":{"ha":950,"x_min":38,"x_max":943,"o":"m 592 967 q 847 882 750 967 q 943 639 943 797 q 938 563 943 597 l 664 563 l 671 611 q 672 622 672 615 l 672 635 q 639 719 672 688 q 551 750 606 750 l 544 750 q 435 711 476 750 q 386 611 394 672 l 349 343 q 347 333 347 339 l 347 324 q 381 238 347 272 q 468 204 415 204 l 488 204 q 646 343 624 204 l 653 389 l 914 389 q 769 93 886 200 q 465 -14 651 -14 l 426 -14 q 226 28 314 -14 q 88 148 138 69 q 38 336 38 226 q 44 401 38 351 q 64 550 50 451 q 149 768 81 674 q 322 915 217 863 q 553 967 428 967 l 592 967 m 413 -24 q 522 -47 479 -24 q 565 -128 565 -71 l 565 -139 q 506 -243 565 -212 q 383 -274 447 -274 q 288 -260 332 -274 q 215 -224 243 -247 l 271 -149 q 312 -179 283 -165 q 382 -193 340 -193 q 444 -139 444 -193 q 397 -106 444 -106 l 372 -106 l 383 -24 l 413 -24 z "},"D":{"ha":968,"x_min":22,"x_max":949,"o":"m 586 953 q 773 906 690 953 q 902 776 856 858 q 949 594 949 694 q 944 536 949 565 l 926 417 q 847 204 908 299 q 683 55 785 110 q 451 0 582 0 l 22 0 l 157 953 l 586 953 m 421 736 l 349 221 l 456 221 q 565 260 524 221 q 614 360 606 299 l 649 615 q 615 701 649 667 q 528 736 581 736 l 421 736 z "},"Ð":{"ha":997,"x_min":7,"x_max":978,"o":"m 615 953 q 802 906 719 953 q 931 776 885 858 q 978 594 978 694 q 974 536 978 565 l 956 417 q 876 204 938 299 q 713 55 814 110 q 481 0 611 0 l 51 0 l 110 413 l 7 413 l 25 543 l 128 543 l 186 953 l 615 953 m 450 736 l 422 543 l 529 543 l 511 413 l 404 413 l 378 221 l 485 221 q 594 260 553 221 q 643 360 635 299 l 678 615 q 644 701 678 667 q 557 736 610 736 l 450 736 z "},"Ď":{"ha":968,"x_min":22,"x_max":949,"o":"m 586 953 q 773 906 690 953 q 902 776 856 858 q 949 594 949 694 q 944 536 949 565 l 926 417 q 847 204 908 299 q 683 55 785 110 q 451 0 582 0 l 22 0 l 157 953 l 586 953 m 421 736 l 349 221 l 456 221 q 565 260 524 221 q 614 360 606 299 l 649 615 q 615 701 649 667 q 528 736 581 736 l 421 736 m 822 1243 l 600 1042 l 422 1042 l 258 1243 l 439 1243 l 526 1136 l 644 1243 l 822 1243 z "},"Đ":{"ha":997,"x_min":7,"x_max":978,"o":"m 615 953 q 802 906 719 953 q 931 776 885 858 q 978 594 978 694 q 974 536 978 565 l 956 417 q 876 204 938 299 q 713 55 814 110 q 481 0 611 0 l 51 0 l 110 413 l 7 413 l 25 543 l 128 543 l 186 953 l 615 953 m 450 736 l 422 543 l 529 543 l 511 413 l 404 413 l 378 221 l 485 221 q 594 260 553 221 q 643 360 635 299 l 678 615 q 644 701 678 667 q 557 736 610 736 l 450 736 z "},"E":{"ha":833,"x_min":22,"x_max":872,"o":"m 872 953 l 814 733 l 413 733 l 392 594 l 778 594 l 749 382 l 363 382 l 340 228 l 738 228 l 738 0 l 22 0 l 157 953 l 872 953 z "},"É":{"ha":833,"x_min":22,"x_max":872,"o":"m 793 1243 l 794 1239 l 592 1042 l 428 1042 l 583 1243 l 793 1243 m 872 953 l 814 733 l 413 733 l 392 594 l 778 594 l 749 382 l 363 382 l 340 228 l 738 228 l 738 0 l 22 0 l 157 953 l 872 953 z "},"Ě":{"ha":833,"x_min":22,"x_max":872,"o":"m 872 953 l 814 733 l 413 733 l 392 594 l 778 594 l 749 382 l 363 382 l 340 228 l 738 228 l 738 0 l 22 0 l 157 953 l 872 953 m 824 1243 l 601 1042 l 424 1042 l 260 1243 l 440 1243 l 528 1136 l 646 1243 l 824 1243 z "},"Ê":{"ha":833,"x_min":22,"x_max":872,"o":"m 644 1244 l 808 1043 l 628 1043 l 540 1150 l 422 1043 l 244 1043 l 467 1244 l 644 1244 m 872 953 l 814 733 l 413 733 l 392 594 l 778 594 l 749 382 l 363 382 l 340 228 l 738 228 l 738 0 l 22 0 l 157 953 l 872 953 z "},"Ë":{"ha":833,"x_min":22,"x_max":872,"o":"m 494 1247 l 465 1043 l 254 1043 l 283 1247 l 494 1247 m 800 1247 l 771 1043 l 560 1043 l 589 1247 l 800 1247 m 872 953 l 814 733 l 413 733 l 392 594 l 778 594 l 749 382 l 363 382 l 340 228 l 738 228 l 738 0 l 22 0 l 157 953 l 872 953 z "},"Ė":{"ha":833,"x_min":22,"x_max":872,"o":"m 872 953 l 814 733 l 413 733 l 392 594 l 778 594 l 749 382 l 363 382 l 340 228 l 738 228 l 738 0 l 22 0 l 157 953 l 872 953 m 635 1294 l 606 1090 l 394 1090 l 424 1294 l 635 1294 z "},"È":{"ha":833,"x_min":22,"x_max":872,"o":"m 514 1244 l 611 1043 l 447 1043 l 300 1240 l 304 1244 l 514 1244 m 872 953 l 814 733 l 413 733 l 392 594 l 778 594 l 749 382 l 363 382 l 340 228 l 738 228 l 738 0 l 22 0 l 157 953 l 872 953 z "},"Ē":{"ha":833,"x_min":22,"x_max":872,"o":"m 872 953 l 814 733 l 413 733 l 392 594 l 778 594 l 749 382 l 363 382 l 340 228 l 738 228 l 738 0 l 22 0 l 157 953 l 872 953 m 721 1265 l 721 1163 l 279 1163 l 279 1265 l 721 1265 z "},"Ę":{"ha":833,"x_min":22,"x_max":872,"o":"m 872 953 l 814 733 l 413 733 l 392 594 l 778 594 l 749 382 l 363 382 l 340 228 l 738 228 l 738 0 l 22 0 l 157 953 l 872 953 m 708 0 q 651 -40 672 -21 q 631 -86 631 -58 q 647 -115 631 -106 q 686 -125 664 -125 q 782 -106 726 -125 l 792 -165 q 642 -199 719 -199 q 556 -178 590 -199 q 521 -115 521 -158 q 545 -52 521 -79 q 611 0 569 -25 l 708 0 z "},"F":{"ha":782,"x_min":22,"x_max":846,"o":"m 846 953 l 786 726 l 410 726 l 388 571 l 738 571 l 707 357 l 357 357 l 307 0 l 22 0 l 157 953 l 846 953 z "},"G":{"ha":971,"x_min":39,"x_max":944,"o":"m 604 967 q 777 928 700 967 q 899 822 854 890 q 944 665 944 753 q 942 619 944 650 l 940 610 l 671 610 q 672 624 672 614 l 672 638 q 639 722 672 694 q 551 750 606 750 l 544 750 q 437 711 479 750 q 386 611 394 672 l 349 343 q 347 333 347 339 l 347 324 q 381 238 347 272 q 468 204 415 204 l 493 204 q 588 241 551 204 q 633 344 624 278 l 472 344 l 499 533 l 929 533 l 883 200 q 864 0 864 86 l 708 0 l 685 101 q 560 16 626 46 q 396 -14 493 -14 l 382 -14 q 202 32 281 -14 q 81 158 124 78 q 39 339 39 239 q 43 403 39 369 l 64 550 q 145 762 81 667 q 317 912 210 857 q 565 967 425 967 l 604 967 z "},"Ğ":{"ha":971,"x_min":39,"x_max":944,"o":"m 604 967 q 777 928 700 967 q 899 822 854 890 q 944 665 944 753 q 942 619 944 650 l 940 610 l 671 610 q 672 624 672 614 l 672 638 q 639 722 672 694 q 551 750 606 750 l 544 750 q 437 711 479 750 q 386 611 394 672 l 349 343 q 347 333 347 339 l 347 324 q 381 238 347 272 q 468 204 415 204 l 493 204 q 588 241 551 204 q 633 344 624 278 l 472 344 l 499 533 l 929 533 l 883 200 q 864 0 864 86 l 708 0 l 685 101 q 560 16 626 46 q 396 -14 493 -14 l 382 -14 q 202 32 281 -14 q 81 158 124 78 q 39 339 39 239 q 43 403 39 369 l 64 550 q 145 762 81 667 q 317 912 210 857 q 565 967 425 967 l 604 967 m 864 1267 q 827 1188 864 1228 q 728 1121 790 1147 q 596 1094 667 1094 q 463 1121 525 1094 q 365 1188 401 1147 q 329 1267 329 1228 l 463 1267 q 481 1246 463 1258 q 531 1224 500 1233 q 596 1214 561 1214 q 662 1224 631 1214 q 713 1246 693 1233 q 732 1267 732 1258 l 864 1267 z "},"Ģ":{"ha":971,"x_min":39,"x_max":944,"o":"m 604 967 q 777 928 700 967 q 899 822 854 890 q 944 665 944 753 q 942 619 944 650 l 940 610 l 671 610 q 672 624 672 614 l 672 638 q 639 722 672 694 q 551 750 606 750 l 544 750 q 437 711 479 750 q 386 611 394 672 l 349 343 q 347 333 347 339 l 347 324 q 381 238 347 272 q 468 204 415 204 l 493 204 q 588 241 551 204 q 633 344 624 278 l 472 344 l 499 533 l 929 533 l 883 200 q 864 0 864 86 l 708 0 l 685 101 q 560 16 626 46 q 396 -14 493 -14 l 382 -14 q 202 32 281 -14 q 81 158 124 78 q 39 339 39 239 q 43 403 39 369 l 64 550 q 145 762 81 667 q 317 912 210 857 q 565 967 425 967 l 604 967 m 614 -28 l 590 -193 l 529 -347 l 399 -347 l 438 -237 l 319 -237 l 349 -28 l 614 -28 z "},"H":{"ha":968,"x_min":22,"x_max":967,"o":"m 967 953 l 832 0 l 540 0 l 593 371 l 368 371 l 315 0 l 22 0 l 157 953 l 449 953 l 399 601 l 624 601 l 674 953 l 967 953 z "},"I":{"ha":619,"x_min":-7,"x_max":647,"o":"m 647 953 l 618 749 l 506 749 l 429 206 l 542 206 l 513 0 l -7 0 l 22 206 l 135 206 l 211 749 l 99 749 l 128 953 l 647 953 z "},"Í":{"ha":619,"x_min":-7,"x_max":678,"o":"m 676 1243 l 678 1239 l 475 1042 l 311 1042 l 467 1243 l 676 1243 m 647 953 l 618 749 l 506 749 l 429 206 l 542 206 l 513 0 l -7 0 l 22 206 l 135 206 l 211 749 l 99 749 l 128 953 l 647 953 z "},"Î":{"ha":619,"x_min":-7,"x_max":676,"o":"m 513 1243 l 676 1042 l 496 1042 l 408 1149 l 290 1042 l 113 1042 l 335 1243 l 513 1243 m 647 953 l 618 749 l 506 749 l 429 206 l 542 206 l 513 0 l -7 0 l 22 206 l 135 206 l 211 749 l 99 749 l 128 953 l 647 953 z "},"Ï":{"ha":619,"x_min":-7,"x_max":682,"o":"m 376 1246 l 347 1042 l 136 1042 l 165 1246 l 376 1246 m 682 1246 l 653 1042 l 442 1042 l 471 1246 l 682 1246 m 647 953 l 618 749 l 506 749 l 429 206 l 542 206 l 513 0 l -7 0 l 22 206 l 135 206 l 211 749 l 99 749 l 128 953 l 647 953 z "},"İ":{"ha":619,"x_min":-7,"x_max":647,"o":"m 647 953 l 618 749 l 506 749 l 429 206 l 542 206 l 513 0 l -7 0 l 22 206 l 135 206 l 211 749 l 99 749 l 128 953 l 647 953 m 542 1294 l 513 1090 l 301 1090 l 331 1294 l 542 1294 z "},"Ì":{"ha":619,"x_min":-7,"x_max":647,"o":"m 372 1243 l 469 1042 l 306 1042 l 158 1239 l 163 1243 l 372 1243 m 647 953 l 618 749 l 506 749 l 429 206 l 542 206 l 513 0 l -7 0 l 22 206 l 135 206 l 211 749 l 99 749 l 128 953 l 647 953 z "},"Ī":{"ha":619,"x_min":-7,"x_max":647,"o":"m 647 953 l 618 749 l 506 749 l 429 206 l 542 206 l 513 0 l -7 0 l 22 206 l 135 206 l 211 749 l 99 749 l 128 953 l 647 953 m 628 1265 l 628 1163 l 186 1163 l 186 1265 l 628 1265 z "},"Į":{"ha":619,"x_min":-7,"x_max":647,"o":"m 647 953 l 618 749 l 506 749 l 429 206 l 542 206 l 513 0 l -7 0 l 22 206 l 135 206 l 211 749 l 99 749 l 128 953 l 647 953 m 488 0 q 431 -40 451 -21 q 410 -86 410 -58 q 426 -115 410 -106 q 465 -125 443 -125 q 561 -106 506 -125 l 571 -165 q 421 -199 499 -199 q 335 -178 369 -199 q 300 -115 300 -158 q 324 -52 300 -79 q 390 0 349 -25 l 488 0 z "},"J":{"ha":754,"x_min":-12,"x_max":756,"o":"m 657 250 q 541 55 638 124 q 301 -14 444 -14 l 258 -14 q 58 43 129 -14 q -12 204 -12 100 l -12 219 q 4 344 -12 246 l 271 344 l 264 300 q 257 247 257 261 q 272 209 257 224 q 307 194 286 194 q 351 212 332 194 q 374 258 369 229 l 471 953 l 756 953 l 657 250 z "},"K":{"ha":950,"x_min":22,"x_max":1035,"o":"m 1035 953 l 690 571 l 908 0 l 582 0 l 465 344 l 336 211 l 306 0 l 22 0 l 157 953 l 440 953 l 388 576 l 713 953 l 1035 953 z "},"Ķ":{"ha":950,"x_min":22,"x_max":1035,"o":"m 1035 953 l 690 571 l 908 0 l 582 0 l 465 344 l 336 211 l 306 0 l 22 0 l 157 953 l 440 953 l 388 576 l 713 953 l 1035 953 m 603 -28 l 579 -193 l 518 -347 l 388 -347 l 426 -237 l 308 -237 l 338 -28 l 603 -28 z "},"L":{"ha":750,"x_min":22,"x_max":690,"o":"m 451 953 l 350 233 l 690 233 l 690 0 l 22 0 l 157 953 l 451 953 z "},"Ĺ":{"ha":750,"x_min":22,"x_max":690,"o":"m 451 953 l 350 233 l 690 233 l 690 0 l 22 0 l 157 953 l 451 953 m 640 1243 l 642 1239 l 439 1042 l 275 1042 l 431 1243 l 640 1243 z "},"Ľ":{"ha":750,"x_min":22,"x_max":846,"o":"m 451 953 l 350 233 l 690 233 l 690 0 l 22 0 l 157 953 l 451 953 m 846 953 l 814 729 l 708 469 l 578 469 l 661 699 l 544 699 l 581 953 l 846 953 z "},"Ļ":{"ha":750,"x_min":22,"x_max":690,"o":"m 451 953 l 350 233 l 690 233 l 690 0 l 22 0 l 157 953 l 451 953 m 503 -28 l 479 -193 l 418 -347 l 288 -347 l 326 -237 l 208 -237 l 238 -28 l 503 -28 z "},"Ł":{"ha":771,"x_min":3,"x_max":703,"o":"m 472 953 l 435 693 l 571 756 l 550 610 l 415 547 l 371 233 l 703 233 l 703 0 l 43 0 l 100 400 l 3 354 l 24 500 l 121 546 l 178 953 l 472 953 z "},"M":{"ha":1394,"x_min":22,"x_max":1393,"o":"m 1393 953 l 1258 0 l 967 0 l 1053 611 l 1047 611 l 794 0 l 460 0 l 381 611 l 374 611 l 288 0 l 22 0 l 157 953 l 635 953 l 700 444 l 706 444 l 913 953 l 1393 953 z "},"N":{"ha":967,"x_min":22,"x_max":965,"o":"m 831 0 l 581 0 l 392 342 q 368 386 383 353 l 350 422 l 290 0 l 22 0 l 157 953 l 401 953 l 596 599 l 635 521 l 696 953 l 965 953 l 831 0 z "},"Ń":{"ha":967,"x_min":22,"x_max":965,"o":"m 831 0 l 581 0 l 392 342 q 368 386 383 353 l 350 422 l 290 0 l 22 0 l 157 953 l 401 953 l 596 599 l 635 521 l 696 953 l 965 953 l 831 0 m 860 1243 l 861 1239 l 658 1042 l 494 1042 l 650 1243 l 860 1243 z "},"Ň":{"ha":967,"x_min":22,"x_max":965,"o":"m 831 0 l 581 0 l 392 342 q 368 386 383 353 l 350 422 l 290 0 l 22 0 l 157 953 l 401 953 l 596 599 l 635 521 l 696 953 l 965 953 l 831 0 m 932 1243 l 710 1042 l 532 1042 l 368 1243 l 549 1243 l 636 1136 l 754 1243 l 932 1243 z "},"Ņ":{"ha":967,"x_min":22,"x_max":965,"o":"m 831 0 l 581 0 l 392 342 q 368 386 383 353 l 350 422 l 290 0 l 22 0 l 157 953 l 401 953 l 596 599 l 635 521 l 696 953 l 965 953 l 831 0 m 611 -28 l 588 -193 l 526 -347 l 396 -347 l 435 -237 l 317 -237 l 346 -28 l 611 -28 z "},"Ñ":{"ha":967,"x_min":22,"x_max":965,"o":"m 913 1235 q 874 1138 904 1183 q 795 1065 843 1093 q 689 1036 747 1036 q 631 1043 658 1036 q 563 1065 604 1050 q 505 1085 529 1078 q 457 1092 481 1092 q 412 1076 432 1092 q 379 1036 392 1061 l 268 1036 q 307 1133 276 1088 q 385 1206 338 1178 q 490 1235 433 1235 q 549 1227 521 1235 q 617 1206 576 1219 q 722 1179 682 1179 q 767 1194 747 1179 q 800 1235 788 1210 l 913 1235 m 831 0 l 581 0 l 392 342 q 368 386 383 353 l 350 422 l 290 0 l 22 0 l 157 953 l 401 953 l 596 599 l 635 521 l 696 953 l 965 953 l 831 0 z "},"O":{"ha":999,"x_min":39,"x_max":979,"o":"m 617 964 q 803 917 721 964 q 933 788 886 869 q 979 606 979 706 q 977 569 979 586 q 971 524 975 551 l 954 403 q 874 192 938 286 q 708 42 810 97 q 479 -14 606 -14 l 401 -14 q 215 33 297 -14 q 85 163 132 81 q 39 344 39 244 q 41 383 39 363 q 47 426 43 403 q 51 464 50 449 q 58 504 56 483 q 64 547 61 525 q 144 758 81 663 q 310 908 208 853 q 539 964 413 964 l 617 964 m 544 750 q 435 711 476 750 q 386 611 394 672 l 349 343 q 347 333 347 340 l 347 324 q 381 238 347 272 q 468 204 415 204 l 475 204 q 584 243 543 204 q 633 343 625 282 l 671 611 q 672 631 672 615 q 638 715 672 681 q 551 750 604 750 l 544 750 z "},"Ó":{"ha":999,"x_min":39,"x_max":979,"o":"m 879 1243 l 881 1239 l 678 1042 l 514 1042 l 669 1243 l 879 1243 m 617 964 q 803 917 721 964 q 933 788 886 869 q 979 606 979 706 q 977 569 979 586 q 971 524 975 551 l 954 403 q 874 192 938 286 q 708 42 810 97 q 479 -14 606 -14 l 401 -14 q 215 33 297 -14 q 85 163 132 81 q 39 344 39 244 q 41 383 39 363 q 47 426 43 403 q 51 464 50 449 q 58 504 56 483 q 64 547 61 525 q 144 758 81 663 q 310 908 208 853 q 539 964 413 964 l 617 964 m 544 750 q 435 711 476 750 q 386 611 394 672 l 349 343 q 347 333 347 339 l 347 324 q 381 238 347 272 q 468 204 415 204 l 475 204 q 584 243 543 204 q 633 343 625 282 l 671 611 q 672 631 672 615 q 638 715 672 681 q 551 750 604 750 l 544 750 z "},"Ô":{"ha":999,"x_min":39,"x_max":979,"o":"m 708 1243 l 872 1042 l 692 1042 l 604 1149 l 486 1042 l 308 1042 l 531 1243 l 708 1243 m 617 964 q 803 917 721 964 q 933 788 886 869 q 979 606 979 706 q 977 569 979 586 q 971 524 975 551 l 954 403 q 874 192 938 286 q 708 42 810 97 q 479 -14 606 -14 l 401 -14 q 215 33 297 -14 q 85 163 132 81 q 39 344 39 244 q 41 383 39 363 q 47 426 43 403 q 51 464 50 449 q 58 504 56 483 q 64 547 61 525 q 144 758 81 663 q 310 908 208 853 q 539 964 413 964 l 617 964 m 544 750 q 435 711 476 750 q 386 611 394 672 l 349 343 q 347 333 347 339 l 347 324 q 381 238 347 272 q 468 204 415 204 l 475 204 q 584 243 543 204 q 633 343 625 282 l 671 611 q 672 631 672 615 q 638 715 672 681 q 551 750 604 750 l 544 750 z "},"Ö":{"ha":999,"x_min":39,"x_max":979,"o":"m 578 1246 l 549 1042 l 338 1042 l 367 1246 l 578 1246 m 883 1246 l 854 1042 l 643 1042 l 672 1246 l 883 1246 m 617 964 q 803 917 721 964 q 933 788 886 869 q 979 606 979 706 q 977 569 979 586 q 971 524 975 551 l 954 403 q 874 192 938 286 q 708 42 810 97 q 479 -14 606 -14 l 401 -14 q 215 33 297 -14 q 85 163 132 81 q 39 344 39 244 q 41 383 39 363 q 47 426 43 403 q 51 464 50 449 q 58 504 56 483 q 64 547 61 525 q 144 758 81 663 q 310 908 208 853 q 539 964 413 964 l 617 964 m 544 750 q 435 711 476 750 q 386 611 394 672 l 349 343 q 347 333 347 339 l 347 324 q 381 238 347 272 q 468 204 415 204 l 475 204 q 584 243 543 204 q 633 343 625 282 l 671 611 q 672 631 672 615 q 638 715 672 681 q 551 750 604 750 l 544 750 z "},"Ò":{"ha":999,"x_min":39,"x_max":979,"o":"m 563 1243 l 660 1042 l 496 1042 l 349 1239 l 353 1243 l 563 1243 m 617 964 q 803 917 721 964 q 933 788 886 869 q 979 606 979 706 q 977 569 979 586 q 971 524 975 551 l 954 403 q 874 192 938 286 q 708 42 810 97 q 479 -14 606 -14 l 401 -14 q 215 33 297 -14 q 85 163 132 81 q 39 344 39 244 q 41 383 39 363 q 47 426 43 403 q 51 464 50 449 q 58 504 56 483 q 64 547 61 525 q 144 758 81 663 q 310 908 208 853 q 539 964 413 964 l 617 964 m 544 750 q 435 711 476 750 q 386 611 394 672 l 349 343 q 347 333 347 339 l 347 324 q 381 238 347 272 q 468 204 415 204 l 475 204 q 584 243 543 204 q 633 343 625 282 l 671 611 q 672 631 672 615 q 638 715 672 681 q 551 750 604 750 l 544 750 z "},"Ő":{"ha":999,"x_min":39,"x_max":1035,"o":"m 617 964 q 803 917 721 964 q 933 788 886 869 q 979 606 979 706 q 977 569 979 586 q 971 524 975 551 l 954 403 q 874 192 938 286 q 708 42 810 97 q 479 -14 606 -14 l 401 -14 q 215 33 297 -14 q 85 163 132 81 q 39 344 39 244 q 41 383 39 363 q 47 426 43 403 q 51 464 50 449 q 58 504 56 483 q 64 547 61 525 q 144 758 81 663 q 310 908 208 853 q 539 964 413 964 l 617 964 m 544 750 q 435 711 476 750 q 386 611 394 672 l 349 343 q 347 333 347 340 l 347 324 q 381 238 347 272 q 468 204 415 204 l 475 204 q 584 243 543 204 q 633 343 625 282 l 671 611 q 672 631 672 615 q 638 715 672 681 q 551 750 604 750 l 544 750 m 718 1243 l 719 1239 l 517 1042 l 353 1042 l 508 1243 l 718 1243 m 1033 1243 l 1035 1239 l 832 1042 l 668 1042 l 824 1243 l 1033 1243 z "},"Ō":{"ha":999,"x_min":39,"x_max":979,"o":"m 617 964 q 803 917 721 964 q 933 788 886 869 q 979 606 979 706 q 977 569 979 586 q 971 524 975 551 l 954 403 q 874 192 938 286 q 708 42 810 97 q 479 -14 606 -14 l 401 -14 q 215 33 297 -14 q 85 163 132 81 q 39 344 39 244 q 41 383 39 363 q 47 426 43 403 q 51 464 50 449 q 58 504 56 483 q 64 547 61 525 q 144 758 81 663 q 310 908 208 853 q 539 964 413 964 l 617 964 m 544 750 q 435 711 476 750 q 386 611 394 672 l 349 343 q 347 333 347 340 l 347 324 q 381 238 347 272 q 468 204 415 204 l 475 204 q 584 243 543 204 q 633 343 625 282 l 671 611 q 672 631 672 615 q 638 715 672 681 q 551 750 604 750 l 544 750 m 832 1265 l 832 1163 l 390 1163 l 390 1265 l 832 1265 z "},"Ø":{"ha":999,"x_min":6,"x_max":1008,"o":"m 872 865 q 951 749 924 815 q 979 606 979 683 q 977 569 979 586 q 971 524 975 551 l 954 403 q 874 192 938 286 q 708 42 810 97 q 479 -14 606 -14 l 401 -14 q 238 21 318 -14 l 154 -90 l 6 -90 l 140 89 q 65 203 92 138 q 39 344 39 269 q 41 383 39 363 q 47 426 43 403 q 51 464 50 449 q 58 504 56 483 q 64 547 61 525 q 144 758 81 663 q 310 908 208 853 q 539 964 413 964 l 617 964 q 772 932 697 964 l 858 1047 l 1008 1047 l 872 865 m 544 750 q 435 711 476 750 q 386 611 394 672 l 353 372 l 619 729 q 551 750 588 750 l 544 750 m 393 228 q 468 204 425 204 l 475 204 q 584 243 543 204 q 633 343 625 282 l 668 594 l 393 228 z "},"Õ":{"ha":999,"x_min":39,"x_max":979,"o":"m 936 1233 q 897 1137 928 1182 q 819 1063 867 1092 q 713 1035 771 1035 q 655 1042 682 1035 q 586 1064 628 1049 q 528 1083 553 1076 q 481 1090 504 1090 q 435 1075 456 1090 q 403 1035 415 1060 l 292 1035 q 331 1131 300 1086 q 409 1205 361 1176 q 514 1233 457 1233 q 572 1226 544 1233 q 640 1204 600 1218 q 746 1178 707 1178 q 791 1193 771 1178 q 824 1233 811 1208 l 936 1233 m 617 964 q 803 917 721 964 q 933 788 886 869 q 979 606 979 706 q 977 569 979 586 q 971 524 975 551 l 954 403 q 874 192 938 286 q 708 42 810 97 q 479 -14 606 -14 l 401 -14 q 215 33 297 -14 q 85 163 132 81 q 39 344 39 244 q 41 383 39 363 q 47 426 43 403 q 51 464 50 449 q 58 504 56 483 q 64 547 61 525 q 144 758 81 663 q 310 908 208 853 q 539 964 413 964 l 617 964 m 544 750 q 435 711 476 750 q 386 611 394 672 l 349 343 q 347 333 347 339 l 347 324 q 381 238 347 272 q 468 204 415 204 l 475 204 q 584 243 543 204 q 633 343 625 282 l 671 611 q 672 631 672 615 q 638 715 672 681 q 551 750 604 750 l 544 750 z "},"Œ":{"ha":1394,"x_min":39,"x_max":1433,"o":"m 1375 733 l 974 733 l 953 594 l 1339 594 l 1310 382 l 924 382 l 901 228 l 1299 228 l 1299 0 l 401 0 q 215 45 297 0 q 85 169 132 90 q 39 344 39 247 q 45 413 40 374 q 64 547 50 453 q 144 753 81 660 q 311 899 208 846 q 539 953 414 953 l 1433 953 l 1375 733 m 544 739 q 436 701 476 739 q 386 600 396 663 l 349 357 q 347 338 347 353 q 381 252 347 286 q 468 218 415 218 l 475 218 q 583 256 543 218 q 633 357 624 294 l 671 600 q 672 619 672 604 q 638 705 672 671 q 551 739 604 739 l 544 739 z "},"P":{"ha":896,"x_min":22,"x_max":917,"o":"m 664 953 q 794 919 736 953 q 884 828 851 886 q 917 701 917 771 q 876 522 917 604 q 758 389 835 439 q 578 339 681 339 l 363 339 l 314 0 l 22 0 l 157 953 l 664 953 m 418 735 l 392 551 l 519 551 q 586 576 561 551 q 615 635 611 601 l 618 664 q 599 714 618 693 q 546 735 581 735 l 418 735 z "},"Þ":{"ha":897,"x_min":22,"x_max":897,"o":"m 426 810 l 643 810 q 774 776 715 810 q 865 685 832 743 q 897 558 897 628 q 853 381 897 463 q 731 251 808 299 q 558 203 653 203 l 342 203 l 313 0 l 22 0 l 157 953 l 447 953 l 426 810 m 396 593 l 371 408 l 514 408 q 565 428 542 408 q 593 478 589 449 l 599 533 q 582 576 599 560 q 539 593 565 593 l 396 593 z "},"Q":{"ha":997,"x_min":39,"x_max":978,"o":"m 617 964 q 802 917 719 964 q 931 790 885 871 q 978 607 978 708 q 976 564 978 582 q 971 519 975 546 q 954 403 971 519 q 847 156 933 261 q 617 8 761 51 q 717 -54 635 -54 q 797 -45 750 -54 q 878 -26 843 -36 l 896 -21 l 875 -167 q 615 -225 758 -225 q 452 -192 517 -225 q 357 -108 388 -158 q 322 -6 326 -58 q 117 115 194 19 q 39 343 39 210 q 63 547 39 371 q 142 758 76 663 q 312 908 208 853 q 539 964 415 964 l 617 964 m 544 750 q 435 711 476 750 q 386 611 394 672 l 349 343 q 347 333 347 339 l 347 324 q 381 238 347 272 q 468 204 415 204 l 475 204 q 584 243 543 204 q 633 343 625 282 l 671 611 q 672 631 672 615 q 638 715 672 681 q 551 750 604 750 l 544 750 z "},"R":{"ha":947,"x_min":22,"x_max":924,"o":"m 690 953 q 808 927 754 953 q 892 855 861 901 q 924 747 924 808 q 896 626 924 681 q 822 536 868 571 q 719 492 775 501 l 718 485 q 810 416 781 465 q 840 296 840 367 q 839 264 840 278 q 836 240 838 250 q 831 169 831 196 q 883 69 831 83 l 875 13 q 706 -14 807 -14 q 575 18 619 -14 q 531 122 531 50 q 536 181 531 139 q 542 249 542 225 q 519 337 542 304 q 439 369 496 369 l 358 369 l 307 0 l 22 0 l 156 953 l 690 953 m 410 735 l 389 582 l 536 582 q 590 601 569 582 q 615 651 611 621 l 617 678 q 599 718 618 701 q 557 735 581 735 l 410 735 z "},"Ŕ":{"ha":947,"x_min":22,"x_max":924,"o":"m 690 953 q 808 927 754 953 q 892 855 861 901 q 924 747 924 808 q 896 626 924 681 q 822 536 868 571 q 719 492 775 501 l 718 485 q 810 416 781 465 q 840 296 840 367 q 839 264 840 278 q 836 240 838 250 q 831 169 831 196 q 883 69 831 83 l 875 13 q 706 -14 807 -14 q 575 18 619 -14 q 531 122 531 50 q 536 181 531 139 q 542 249 542 225 q 519 337 542 304 q 439 369 496 369 l 358 369 l 307 0 l 22 0 l 156 953 l 690 953 m 410 735 l 389 582 l 536 582 q 590 601 569 582 q 615 651 611 621 l 617 678 q 599 718 618 701 q 557 735 581 735 l 410 735 m 739 1243 l 740 1239 l 538 1042 l 374 1042 l 529 1243 l 739 1243 z "},"Ř":{"ha":947,"x_min":22,"x_max":924,"o":"m 690 953 q 808 927 754 953 q 892 855 861 901 q 924 747 924 808 q 896 626 924 681 q 822 536 868 571 q 719 492 775 501 l 718 485 q 810 416 781 465 q 840 296 840 367 q 839 264 840 278 q 836 240 838 250 q 831 169 831 196 q 883 69 831 83 l 875 13 q 706 -14 807 -14 q 575 18 619 -14 q 531 122 531 50 q 536 181 531 139 q 542 249 542 225 q 519 337 542 304 q 439 369 496 369 l 358 369 l 307 0 l 22 0 l 156 953 l 690 953 m 410 735 l 389 582 l 536 582 q 590 601 569 582 q 615 651 611 621 l 617 678 q 599 718 618 701 q 557 735 581 735 l 410 735 m 811 1243 l 589 1042 l 411 1042 l 247 1243 l 428 1243 l 515 1136 l 633 1243 l 811 1243 z "},"Ŗ":{"ha":947,"x_min":22,"x_max":924,"o":"m 690 953 q 808 927 754 953 q 892 855 861 901 q 924 747 924 808 q 896 626 924 681 q 822 536 868 571 q 719 492 775 501 l 718 485 q 810 416 781 465 q 840 296 840 367 q 839 264 840 278 q 836 240 838 250 q 831 169 831 196 q 883 69 831 83 l 875 13 q 706 -14 807 -14 q 575 18 619 -14 q 531 122 531 50 q 536 181 531 139 q 542 249 542 225 q 519 337 542 304 q 439 369 496 369 l 358 369 l 307 0 l 22 0 l 156 953 l 690 953 m 410 735 l 389 582 l 536 582 q 590 601 569 582 q 615 651 611 621 l 617 678 q 599 718 618 701 q 557 735 581 735 l 410 735 m 601 -28 l 578 -193 l 517 -347 l 386 -347 l 425 -237 l 307 -237 l 336 -28 l 601 -28 z "},"S":{"ha":904,"x_min":17,"x_max":889,"o":"m 539 967 q 792 904 694 967 q 889 718 889 842 q 883 658 889 686 l 617 658 l 618 685 q 592 735 619 714 q 515 756 565 756 q 422 738 454 756 q 390 690 390 719 q 427 642 390 658 q 550 606 464 626 q 705 563 643 586 q 811 492 767 540 q 856 363 856 443 q 747 95 856 204 q 383 -14 639 -14 q 121 52 225 -14 q 17 246 17 118 q 25 325 17 272 l 294 325 q 289 294 289 313 q 317 233 289 257 q 407 210 344 210 q 547 276 547 210 q 512 322 547 307 q 397 356 476 338 q 242 399 304 375 q 133 476 179 424 q 88 615 88 528 q 212 876 88 785 q 539 967 336 967 z "},"Ś":{"ha":904,"x_min":17,"x_max":889,"o":"m 539 967 q 792 904 694 967 q 889 718 889 842 q 883 658 889 686 l 617 658 l 618 685 q 592 735 619 714 q 515 756 565 756 q 422 738 454 756 q 390 690 390 719 q 427 642 390 658 q 550 606 464 626 q 705 563 643 586 q 811 492 767 540 q 856 363 856 443 q 747 95 856 204 q 383 -14 639 -14 q 121 52 225 -14 q 17 246 17 118 q 25 325 17 272 l 294 325 q 289 294 289 313 q 317 233 289 257 q 407 210 344 210 q 547 276 547 210 q 512 322 547 307 q 397 356 476 338 q 242 399 304 375 q 133 476 179 424 q 88 615 88 528 q 212 876 88 785 q 539 967 336 967 m 774 1243 l 775 1239 l 572 1042 l 408 1042 l 564 1243 l 774 1243 z "},"Š":{"ha":904,"x_min":17,"x_max":889,"o":"m 847 1243 l 625 1042 l 447 1042 l 283 1243 l 464 1243 l 551 1136 l 669 1243 l 847 1243 m 539 967 q 792 904 694 967 q 889 718 889 842 q 883 658 889 686 l 617 658 l 618 685 q 592 735 619 714 q 515 756 565 756 q 422 738 454 756 q 390 690 390 719 q 427 642 390 658 q 550 606 464 626 q 705 563 643 586 q 811 492 767 540 q 856 363 856 443 q 747 95 856 204 q 383 -14 639 -14 q 121 52 225 -14 q 17 246 17 118 q 25 325 17 272 l 294 325 q 289 294 289 313 q 317 233 289 257 q 407 210 344 210 q 547 276 547 210 q 512 322 547 307 q 397 356 476 338 q 242 399 304 375 q 133 476 179 424 q 88 615 88 528 q 212 876 88 785 q 539 967 336 967 z "},"Ş":{"ha":904,"x_min":17,"x_max":889,"o":"m 539 967 q 792 904 694 967 q 889 718 889 842 q 883 658 889 686 l 617 658 l 618 685 q 592 735 619 714 q 515 756 565 756 q 422 738 454 756 q 390 690 390 719 q 427 642 390 658 q 550 606 464 626 q 705 563 643 586 q 811 492 767 540 q 856 363 856 443 q 747 95 856 204 q 383 -14 639 -14 q 121 52 225 -14 q 17 246 17 118 q 25 325 17 272 l 294 325 q 289 294 289 313 q 317 233 289 257 q 407 210 344 210 q 547 276 547 210 q 512 322 547 307 q 397 356 476 338 q 242 399 304 375 q 133 476 179 424 q 88 615 88 528 q 212 876 88 785 q 539 967 336 967 m 475 -24 q 585 -47 542 -24 q 628 -128 628 -71 l 628 -139 q 569 -243 628 -212 q 446 -274 510 -274 q 350 -260 394 -274 q 278 -224 306 -247 l 333 -149 q 374 -179 346 -165 q 444 -193 403 -193 q 507 -139 507 -193 q 460 -106 507 -106 l 435 -106 l 446 -24 l 475 -24 z "},"Ș":{"ha":904,"x_min":17,"x_max":889,"o":"m 539 967 q 792 904 694 967 q 889 718 889 842 q 883 658 889 686 l 617 658 l 618 685 q 592 735 619 714 q 515 756 565 756 q 422 738 454 756 q 390 690 390 719 q 427 642 390 658 q 550 606 464 626 q 705 563 643 586 q 811 492 767 540 q 856 363 856 443 q 747 95 856 204 q 383 -14 639 -14 q 121 52 225 -14 q 17 246 17 118 q 25 325 17 272 l 294 325 q 289 294 289 313 q 317 233 289 257 q 407 210 344 210 q 547 276 547 210 q 512 322 547 307 q 397 356 476 338 q 242 399 304 375 q 133 476 179 424 q 88 615 88 528 q 212 876 88 785 q 539 967 336 967 m 581 -28 l 557 -193 l 496 -347 l 365 -347 l 404 -237 l 286 -237 l 315 -28 l 581 -28 z "},"T":{"ha":813,"x_min":65,"x_max":869,"o":"m 869 953 l 838 724 l 596 724 l 493 0 l 204 0 l 307 724 l 65 724 l 97 953 l 869 953 z "},"Ť":{"ha":813,"x_min":65,"x_max":869,"o":"m 869 953 l 838 724 l 596 724 l 493 0 l 204 0 l 307 724 l 65 724 l 97 953 l 869 953 m 814 1243 l 592 1042 l 414 1042 l 250 1243 l 431 1243 l 518 1136 l 636 1243 l 814 1243 z "},"Ţ":{"ha":813,"x_min":65,"x_max":869,"o":"m 869 953 l 838 724 l 596 724 l 493 0 l 204 0 l 307 724 l 65 724 l 97 953 l 869 953 m 371 -24 q 481 -47 438 -24 q 524 -128 524 -71 l 524 -139 q 465 -243 524 -212 q 342 -274 406 -274 q 246 -260 290 -274 q 174 -224 201 -247 l 229 -149 q 270 -179 242 -165 q 340 -193 299 -193 q 403 -139 403 -193 q 356 -106 403 -106 l 331 -106 l 342 -24 l 371 -24 z "},"Ț":{"ha":813,"x_min":65,"x_max":869,"o":"m 869 953 l 838 724 l 596 724 l 493 0 l 204 0 l 307 724 l 65 724 l 97 953 l 869 953 m 476 -28 l 453 -193 l 392 -347 l 261 -347 l 300 -237 l 182 -237 l 211 -28 l 476 -28 z "},"U":{"ha":954,"x_min":54,"x_max":958,"o":"m 868 303 q 739 70 846 154 q 449 -14 632 -14 l 389 -14 q 144 58 235 -14 q 54 253 54 131 q 58 303 54 278 l 149 953 l 442 953 l 351 307 q 350 292 350 303 q 378 227 350 251 q 450 203 407 203 q 538 231 506 203 q 576 307 569 260 l 667 953 l 958 953 l 868 303 z "},"Ú":{"ha":954,"x_min":54,"x_max":958,"o":"m 844 1243 l 846 1239 l 643 1042 l 479 1042 l 635 1243 l 844 1243 m 868 303 q 739 70 846 154 q 449 -14 632 -14 l 389 -14 q 144 58 235 -14 q 54 253 54 131 q 58 303 54 278 l 149 953 l 442 953 l 351 307 q 350 292 350 303 q 378 227 350 251 q 450 203 407 203 q 538 231 506 203 q 576 307 569 260 l 667 953 l 958 953 l 868 303 z "},"Û":{"ha":954,"x_min":54,"x_max":958,"o":"m 682 1243 l 846 1042 l 665 1042 l 578 1149 l 460 1042 l 282 1042 l 504 1243 l 682 1243 m 868 303 q 739 70 846 154 q 449 -14 632 -14 l 389 -14 q 144 58 235 -14 q 54 253 54 131 q 58 303 54 278 l 149 953 l 442 953 l 351 307 q 350 292 350 303 q 378 227 350 251 q 450 203 407 203 q 538 231 506 203 q 576 307 569 260 l 667 953 l 958 953 l 868 303 z "},"Ü":{"ha":954,"x_min":54,"x_max":958,"o":"m 543 1246 l 514 1042 l 303 1042 l 332 1246 l 543 1246 m 849 1246 l 819 1042 l 608 1042 l 638 1246 l 849 1246 m 868 303 q 739 70 846 154 q 449 -14 632 -14 l 389 -14 q 144 58 235 -14 q 54 253 54 131 q 58 303 54 278 l 149 953 l 442 953 l 351 307 q 350 292 350 303 q 378 227 350 251 q 450 203 407 203 q 538 231 506 203 q 576 307 569 260 l 667 953 l 958 953 l 868 303 z "},"Ù":{"ha":954,"x_min":54,"x_max":958,"o":"m 546 1243 l 643 1042 l 479 1042 l 332 1239 l 336 1243 l 546 1243 m 868 303 q 739 70 846 154 q 449 -14 632 -14 l 389 -14 q 144 58 235 -14 q 54 253 54 131 q 58 303 54 278 l 149 953 l 442 953 l 351 307 q 350 292 350 303 q 378 227 350 251 q 450 203 407 203 q 538 231 506 203 q 576 307 569 260 l 667 953 l 958 953 l 868 303 z "},"Ű":{"ha":954,"x_min":54,"x_max":999,"o":"m 868 303 q 739 70 846 154 q 449 -14 632 -14 l 389 -14 q 144 58 235 -14 q 54 253 54 131 q 58 303 54 278 l 149 953 l 442 953 l 351 307 q 350 292 350 303 q 378 227 350 251 q 450 203 407 203 q 538 231 506 203 q 576 307 569 260 l 667 953 l 958 953 l 868 303 m 682 1243 l 683 1239 l 481 1042 l 317 1042 l 472 1243 l 682 1243 m 997 1243 l 999 1239 l 796 1042 l 632 1042 l 788 1243 l 997 1243 z "},"Ū":{"ha":954,"x_min":54,"x_max":958,"o":"m 868 303 q 739 70 846 154 q 449 -14 632 -14 l 389 -14 q 144 58 235 -14 q 54 253 54 131 q 58 303 54 278 l 149 953 l 442 953 l 351 307 q 350 292 350 303 q 378 227 350 251 q 450 203 407 203 q 538 231 506 203 q 576 307 569 260 l 667 953 l 958 953 l 868 303 m 796 1265 l 796 1163 l 354 1163 l 354 1265 l 796 1265 z "},"Ų":{"ha":954,"x_min":54,"x_max":958,"o":"m 958 953 l 868 303 q 778 106 850 185 q 583 0 706 28 l 594 0 q 538 -40 558 -21 q 517 -86 517 -58 q 533 -115 517 -106 q 572 -125 550 -125 q 668 -106 613 -125 l 678 -165 q 528 -199 606 -199 q 442 -178 476 -199 q 407 -115 407 -158 q 476 -14 407 -57 l 449 -14 l 389 -14 q 144 58 235 -14 q 54 253 54 131 q 58 303 54 278 l 149 953 l 442 953 l 351 307 q 350 292 350 303 q 378 227 350 251 q 450 203 407 203 q 538 231 506 203 q 576 307 569 260 l 667 953 l 958 953 z "},"Ů":{"ha":954,"x_min":54,"x_max":958,"o":"m 868 303 q 739 70 846 154 q 449 -14 632 -14 l 389 -14 q 144 58 235 -14 q 54 253 54 131 q 58 303 54 278 l 149 953 l 442 953 l 351 307 q 350 292 350 303 q 378 227 350 251 q 450 203 407 203 q 538 231 506 203 q 576 307 569 260 l 667 953 l 958 953 l 868 303 m 582 1279 q 669 1245 635 1279 q 703 1160 703 1211 q 656 1047 703 1093 q 542 1000 608 1000 q 454 1034 489 1000 q 419 1121 419 1068 q 468 1232 419 1185 q 582 1279 517 1279 m 568 1188 q 528 1172 544 1188 q 513 1132 513 1156 q 524 1102 513 1114 q 556 1090 536 1090 q 594 1104 578 1090 q 611 1144 611 1118 q 599 1176 611 1164 q 568 1188 588 1188 z "},"V":{"ha":910,"x_min":71,"x_max":992,"o":"m 992 953 l 568 0 l 221 0 l 71 953 l 374 953 l 457 361 l 463 361 l 711 953 l 992 953 z "},"W":{"ha":1419,"x_min":74,"x_max":1497,"o":"m 1497 953 l 1104 0 l 774 0 l 724 457 l 715 457 l 535 0 l 199 0 l 74 953 l 375 953 l 435 424 l 440 424 l 651 953 l 950 953 l 1008 424 l 1014 424 l 1224 953 l 1497 953 z "},"X":{"ha":933,"x_min":-78,"x_max":1006,"o":"m 1006 953 l 672 503 l 900 0 l 561 0 l 442 296 l 436 296 l 235 0 l -78 0 l 290 504 l 86 953 l 424 953 l 521 710 l 526 710 l 693 953 l 1006 953 z "},"Y":{"ha":894,"x_min":61,"x_max":983,"o":"m 983 953 l 585 364 l 533 0 l 243 0 l 294 364 l 61 953 l 389 953 l 488 640 l 494 640 l 685 953 l 983 953 z "},"Ý":{"ha":894,"x_min":61,"x_max":983,"o":"m 831 1243 l 832 1239 l 629 1042 l 465 1042 l 621 1243 l 831 1243 m 983 953 l 585 364 l 533 0 l 243 0 l 294 364 l 61 953 l 389 953 l 488 640 l 494 640 l 685 953 l 983 953 z "},"Ÿ":{"ha":894,"x_min":61,"x_max":983,"o":"m 517 1246 l 488 1042 l 276 1042 l 306 1246 l 517 1246 m 822 1246 l 793 1042 l 582 1042 l 611 1246 l 822 1246 m 983 953 l 585 364 l 533 0 l 243 0 l 294 364 l 61 953 l 389 953 l 488 640 l 494 640 l 685 953 l 983 953 z "},"Z":{"ha":843,"x_min":-37,"x_max":878,"o":"m 878 953 l 865 868 l 408 224 l 786 224 l 754 0 l -37 0 l -25 85 l 438 731 l 97 731 l 129 953 l 878 953 z "},"Ź":{"ha":843,"x_min":-37,"x_max":878,"o":"m 878 953 l 865 868 l 408 224 l 786 224 l 754 0 l -37 0 l -25 85 l 438 731 l 97 731 l 129 953 l 878 953 m 729 1243 l 731 1239 l 528 1042 l 364 1042 l 519 1243 l 729 1243 z "},"Ž":{"ha":843,"x_min":-37,"x_max":878,"o":"m 828 1243 l 606 1042 l 428 1042 l 264 1243 l 444 1243 l 532 1136 l 650 1243 l 828 1243 m 878 953 l 865 868 l 408 224 l 786 224 l 754 0 l -37 0 l -25 85 l 438 731 l 97 731 l 129 953 l 878 953 z "},"Ż":{"ha":843,"x_min":-37,"x_max":878,"o":"m 878 953 l 865 868 l 408 224 l 786 224 l 754 0 l -37 0 l -25 85 l 438 731 l 97 731 l 129 953 l 878 953 m 613 1294 l 583 1090 l 372 1090 l 401 1294 l 613 1294 z "},"a":{"ha":872,"x_min":24,"x_max":821,"o":"m 357 724 q 465 698 414 724 q 546 625 517 672 l 553 625 l 600 710 l 807 710 q 756 378 778 533 q 733 190 733 224 q 769 153 733 153 q 821 171 793 153 l 800 18 q 731 -6 771 3 q 657 -14 692 -14 q 533 8 582 -14 q 468 94 483 31 q 374 17 431 47 q 261 -14 318 -14 q 81 64 139 -14 q 24 268 24 142 q 59 481 24 376 q 170 655 94 586 q 357 724 246 724 m 425 550 q 359 522 388 550 q 325 453 331 494 q 296 236 296 247 q 317 177 296 200 q 369 154 338 154 q 438 181 413 154 q 469 251 463 208 l 483 351 l 489 396 q 499 469 499 457 q 478 529 499 508 q 425 550 458 550 z "},"á":{"ha":872,"x_min":24,"x_max":821,"o":"m 732 1000 l 733 996 l 531 799 l 367 799 l 522 1000 l 732 1000 m 357 724 q 465 698 414 724 q 546 625 517 672 l 553 625 l 600 710 l 807 710 q 756 378 778 533 q 733 190 733 224 q 769 153 733 153 q 821 171 793 153 l 800 18 q 731 -6 771 3 q 657 -14 692 -14 q 533 8 582 -14 q 468 94 483 31 q 374 17 431 47 q 261 -14 318 -14 q 81 64 139 -14 q 24 268 24 142 q 59 481 24 376 q 170 655 94 586 q 357 724 246 724 m 425 550 q 359 522 388 550 q 325 453 331 494 q 296 236 296 247 q 317 177 296 200 q 369 154 338 154 q 438 181 413 154 q 469 251 463 208 l 483 351 l 489 396 q 499 469 499 457 q 478 529 499 508 q 425 550 458 550 z "},"ă":{"ha":872,"x_min":24,"x_max":821,"o":"m 357 724 q 465 698 414 724 q 546 625 517 672 l 553 625 l 600 710 l 807 710 q 756 378 778 533 q 733 190 733 224 q 769 153 733 153 q 821 171 793 153 l 800 18 q 731 -6 771 3 q 657 -14 692 -14 q 533 8 582 -14 q 468 94 483 31 q 374 17 431 47 q 261 -14 318 -14 q 81 64 139 -14 q 24 268 24 142 q 59 481 24 376 q 170 655 94 586 q 357 724 246 724 m 425 550 q 359 522 388 550 q 325 453 331 494 q 296 236 296 247 q 317 177 296 200 q 369 154 338 154 q 438 181 413 154 q 469 251 463 208 l 483 351 l 489 396 q 499 469 499 457 q 478 529 499 508 q 425 550 458 550 m 786 1024 q 749 944 786 985 q 651 878 713 904 q 518 851 589 851 q 385 878 447 851 q 288 944 324 904 q 251 1024 251 985 l 385 1024 q 403 1003 385 1015 q 453 981 422 990 q 518 971 483 971 q 584 981 553 971 q 635 1003 615 990 q 654 1024 654 1015 l 786 1024 z "},"â":{"ha":872,"x_min":24,"x_max":821,"o":"m 606 1000 l 769 799 l 589 799 l 501 906 l 383 799 l 206 799 l 428 1000 l 606 1000 m 357 724 q 465 698 414 724 q 546 625 517 672 l 553 625 l 600 710 l 807 710 q 756 378 778 533 q 733 190 733 224 q 769 153 733 153 q 821 171 793 153 l 800 18 q 731 -6 771 3 q 657 -14 692 -14 q 533 8 582 -14 q 468 94 483 31 q 374 17 431 47 q 261 -14 318 -14 q 81 64 139 -14 q 24 268 24 142 q 59 481 24 376 q 170 655 94 586 q 357 724 246 724 m 425 550 q 359 522 388 550 q 325 453 331 494 q 296 236 296 247 q 317 177 296 200 q 369 154 338 154 q 438 181 413 154 q 469 251 463 208 l 483 351 l 489 396 q 499 469 499 457 q 478 529 499 508 q 425 550 458 550 z "},"ä":{"ha":872,"x_min":24,"x_max":821,"o":"m 485 1000 l 456 796 l 244 796 l 274 1000 l 485 1000 m 790 1000 l 761 796 l 550 796 l 579 1000 l 790 1000 m 357 724 q 465 698 414 724 q 546 625 517 672 l 553 625 l 600 710 l 807 710 q 756 378 778 533 q 733 190 733 224 q 769 153 733 153 q 821 171 793 153 l 800 18 q 731 -6 771 3 q 657 -14 692 -14 q 533 8 582 -14 q 468 94 483 31 q 374 17 431 47 q 261 -14 318 -14 q 81 64 139 -14 q 24 268 24 142 q 59 481 24 376 q 170 655 94 586 q 357 724 246 724 m 425 550 q 359 522 388 550 q 325 453 331 494 q 296 236 296 247 q 317 177 296 200 q 369 154 338 154 q 438 181 413 154 q 469 251 463 208 l 483 351 l 489 396 q 499 469 499 457 q 478 529 499 508 q 425 550 458 550 z "},"à":{"ha":872,"x_min":24,"x_max":821,"o":"m 471 1000 l 568 799 l 404 799 l 257 996 l 261 1000 l 471 1000 m 357 724 q 465 698 414 724 q 546 625 517 672 l 553 625 l 600 710 l 807 710 q 756 378 778 533 q 733 190 733 224 q 769 153 733 153 q 821 171 793 153 l 800 18 q 731 -6 771 3 q 657 -14 692 -14 q 533 8 582 -14 q 468 94 483 31 q 374 17 431 47 q 261 -14 318 -14 q 81 64 139 -14 q 24 268 24 142 q 59 481 24 376 q 170 655 94 586 q 357 724 246 724 m 425 550 q 359 522 388 550 q 325 453 331 494 q 296 236 296 247 q 317 177 296 200 q 369 154 338 154 q 438 181 413 154 q 469 251 463 208 l 483 351 l 489 396 q 499 469 499 457 q 478 529 499 508 q 425 550 458 550 z "},"ā":{"ha":872,"x_min":24,"x_max":821,"o":"m 357 724 q 465 698 414 724 q 546 625 517 672 l 553 625 l 600 710 l 807 710 q 756 378 778 533 q 733 190 733 224 q 769 153 733 153 q 821 171 793 153 l 800 18 q 731 -6 771 3 q 657 -14 692 -14 q 533 8 582 -14 q 468 94 483 31 q 374 17 431 47 q 261 -14 318 -14 q 81 64 139 -14 q 24 268 24 142 q 59 481 24 376 q 170 655 94 586 q 357 724 246 724 m 425 550 q 359 522 388 550 q 325 453 331 494 q 296 236 296 247 q 317 177 296 200 q 369 154 338 154 q 438 181 413 154 q 469 251 463 208 l 483 351 l 489 396 q 499 469 499 457 q 478 529 499 508 q 425 550 458 550 m 726 1022 l 726 919 l 285 919 l 285 1022 l 726 1022 z "},"ą":{"ha":872,"x_min":24,"x_max":868,"o":"m 868 -165 q 718 -199 796 -199 q 632 -178 667 -199 q 597 -115 597 -158 q 615 -60 597 -83 q 665 -14 633 -36 l 657 -14 q 533 8 582 -14 q 468 94 483 31 q 374 17 431 47 q 261 -14 318 -14 q 81 64 139 -14 q 24 268 24 142 q 59 481 24 376 q 170 655 94 586 q 357 724 246 724 q 465 698 414 724 q 546 625 517 672 l 553 625 l 600 710 l 807 710 q 756 378 778 533 q 733 190 733 224 q 769 153 733 153 q 821 171 793 153 l 800 18 q 753 0 775 6 l 785 0 q 728 -40 749 -21 q 707 -86 707 -58 q 724 -115 707 -106 q 763 -125 740 -125 q 858 -106 803 -125 l 868 -165 m 489 396 q 499 469 499 457 q 478 529 499 508 q 425 550 458 550 q 359 522 388 550 q 325 453 331 494 q 296 236 296 247 q 317 177 296 200 q 369 154 338 154 q 438 181 413 154 q 469 251 463 208 l 483 351 l 489 396 z "},"å":{"ha":872,"x_min":24,"x_max":821,"o":"m 535 1056 q 622 1022 588 1056 q 656 936 656 988 q 608 823 656 869 q 494 776 561 776 q 407 810 442 776 q 372 897 372 844 q 421 1008 372 961 q 535 1056 469 1056 m 521 964 q 481 948 497 964 q 465 908 465 932 q 477 878 465 890 q 508 867 489 867 q 547 881 531 867 q 564 921 564 894 q 552 952 564 940 q 521 964 540 964 m 357 724 q 465 698 414 724 q 546 625 517 672 l 553 625 l 600 710 l 807 710 q 756 378 778 533 q 733 190 733 224 q 769 153 733 153 q 821 171 793 153 l 800 18 q 731 -6 771 3 q 657 -14 692 -14 q 533 8 582 -14 q 468 94 483 31 q 374 17 431 47 q 261 -14 318 -14 q 81 64 139 -14 q 24 268 24 142 q 59 481 24 376 q 170 655 94 586 q 357 724 246 724 m 425 550 q 359 522 388 550 q 325 453 331 494 q 296 236 296 247 q 317 177 296 200 q 369 154 338 154 q 438 181 413 154 q 469 251 463 208 l 483 351 l 489 396 q 499 469 499 457 q 478 529 499 508 q 425 550 458 550 z "},"ã":{"ha":872,"x_min":24,"x_max":821,"o":"m 814 1000 q 775 903 806 949 q 697 830 744 858 q 590 801 649 801 q 533 808 560 801 q 464 831 506 815 q 406 850 431 843 q 358 857 382 857 q 313 842 333 857 q 281 801 293 826 l 169 801 q 208 898 178 853 q 287 972 239 943 q 392 1000 335 1000 q 450 992 422 1000 q 518 971 478 985 q 624 944 585 944 q 669 960 649 944 q 701 1000 689 975 l 814 1000 m 357 724 q 465 698 414 724 q 546 625 517 672 l 553 625 l 600 710 l 807 710 q 756 378 778 533 q 733 190 733 224 q 769 153 733 153 q 821 171 793 153 l 800 18 q 731 -6 771 3 q 657 -14 692 -14 q 533 8 582 -14 q 468 94 483 31 q 374 17 431 47 q 261 -14 318 -14 q 81 64 139 -14 q 24 268 24 142 q 59 481 24 376 q 170 655 94 586 q 357 724 246 724 m 425 550 q 359 522 388 550 q 325 453 331 494 q 296 236 296 247 q 317 177 296 200 q 369 154 338 154 q 438 181 413 154 q 469 251 463 208 l 483 351 l 489 396 q 499 469 499 457 q 478 529 499 508 q 425 550 458 550 z "},"æ":{"ha":1283,"x_min":1,"x_max":1247,"o":"m 946 724 q 1169 651 1092 724 q 1247 458 1247 579 l 1244 421 q 1232 318 1243 400 l 769 318 l 760 251 q 758 236 758 247 q 785 176 758 197 q 853 154 811 154 q 932 184 901 154 q 969 267 963 214 l 1224 267 q 1162 124 1213 188 q 1027 23 1111 60 q 838 -14 943 -14 l 817 -14 q 663 10 732 -14 q 549 81 594 35 q 413 12 494 38 q 243 -14 332 -14 q 71 22 140 -14 q 1 158 1 57 q 62 331 1 269 q 231 416 122 393 q 503 439 339 439 l 506 463 q 508 479 507 471 q 510 494 510 488 q 488 544 510 526 q 431 563 465 563 q 366 544 397 563 q 332 497 335 525 l 331 492 l 67 492 q 113 608 67 554 q 243 692 160 661 q 432 724 326 724 l 478 724 q 694 676 614 724 q 911 724 790 724 l 946 724 m 899 556 q 825 528 856 556 q 789 458 794 500 l 786 439 l 978 439 q 979 457 978 449 q 981 471 981 465 q 958 531 981 507 q 899 556 935 556 m 485 313 q 340 284 386 313 q 293 207 293 256 q 368 154 293 154 q 438 181 406 154 q 476 251 471 208 l 485 313 z "},"b":{"ha":832,"x_min":13,"x_max":794,"o":"m 375 636 q 571 724 463 724 q 733 654 672 724 q 794 453 794 585 q 756 226 794 332 q 635 53 717 119 q 433 -14 554 -14 q 303 16 358 -14 q 217 104 249 46 l 108 0 l 13 0 l 151 1000 l 426 1000 l 375 636 m 449 550 q 383 522 411 550 q 349 453 354 494 q 319 236 319 247 q 340 177 319 200 q 393 154 361 154 q 461 181 436 154 q 493 251 486 208 l 507 351 l 513 396 q 522 469 522 457 q 502 529 522 508 q 449 550 482 550 z "},"c":{"ha":789,"x_min":22,"x_max":763,"o":"m 453 724 q 694 647 626 724 q 763 472 763 571 q 758 422 763 447 l 525 422 q 527 449 525 433 q 529 471 529 464 q 506 531 529 507 q 447 556 483 556 q 372 528 400 556 q 338 458 343 501 q 316 323 325 390 q 307 238 307 256 q 331 177 307 200 q 400 154 356 154 q 481 183 453 154 q 515 251 510 213 l 521 288 l 740 288 q 619 65 718 144 q 367 -14 519 -14 q 176 26 253 -14 q 60 131 99 65 q 22 275 22 196 q 72 502 22 400 q 219 664 122 604 q 453 724 317 724 z "},"ć":{"ha":789,"x_min":22,"x_max":763,"o":"m 453 724 q 694 647 626 724 q 763 472 763 571 q 758 422 763 447 l 525 422 q 527 449 525 433 q 529 471 529 464 q 506 531 529 507 q 447 556 483 556 q 372 528 400 556 q 338 458 343 501 q 316 323 325 390 q 307 238 307 256 q 331 177 307 200 q 400 154 356 154 q 481 183 453 154 q 515 251 510 213 l 521 288 l 740 288 q 619 65 718 144 q 367 -14 519 -14 q 176 26 253 -14 q 60 131 99 65 q 22 275 22 196 q 72 502 22 400 q 219 664 122 604 q 453 724 317 724 m 715 1000 l 717 996 l 514 799 l 350 799 l 506 1000 l 715 1000 z "},"č":{"ha":789,"x_min":22,"x_max":788,"o":"m 453 724 q 694 647 626 724 q 763 472 763 571 q 758 422 763 447 l 525 422 q 527 449 525 433 q 529 471 529 464 q 506 531 529 507 q 447 556 483 556 q 372 528 400 556 q 338 458 343 501 q 316 323 325 390 q 307 238 307 256 q 331 177 307 200 q 400 154 356 154 q 481 183 453 154 q 515 251 510 213 l 521 288 l 740 288 q 619 65 718 144 q 367 -14 519 -14 q 176 26 253 -14 q 60 131 99 65 q 22 275 22 196 q 72 502 22 400 q 219 664 122 604 q 453 724 317 724 m 788 1000 l 565 799 l 388 799 l 224 1000 l 404 1000 l 492 893 l 610 1000 l 788 1000 z "},"ç":{"ha":789,"x_min":22,"x_max":763,"o":"m 453 724 q 694 647 626 724 q 763 472 763 571 q 758 422 763 447 l 525 422 q 527 449 525 433 q 529 471 529 464 q 506 531 529 507 q 447 556 483 556 q 372 528 400 556 q 338 458 343 501 q 316 323 325 390 q 307 238 307 256 q 331 177 307 200 q 400 154 356 154 q 481 183 453 154 q 515 251 510 213 l 521 288 l 740 288 q 619 65 718 144 q 367 -14 519 -14 q 176 26 253 -14 q 60 131 99 65 q 22 275 22 196 q 72 502 22 400 q 219 664 122 604 q 453 724 317 724 m 346 -24 q 456 -47 413 -24 q 499 -128 499 -71 l 499 -139 q 440 -243 499 -212 q 317 -274 381 -274 q 222 -260 267 -274 q 149 -224 176 -247 l 204 -149 q 245 -179 217 -165 q 315 -193 274 -193 q 378 -139 378 -193 q 331 -106 378 -106 l 306 -106 l 317 -24 l 346 -24 z "},"d":{"ha":888,"x_min":25,"x_max":849,"o":"m 793 614 l 783 543 q 738 203 736 221 q 744 165 738 178 q 772 153 750 153 q 824 171 796 153 l 803 18 q 734 -6 774 3 q 660 -14 694 -14 q 540 6 588 -14 q 475 82 492 25 q 388 12 433 38 q 274 -14 343 -14 q 92 58 158 -14 q 25 268 25 129 q 72 517 25 414 q 193 672 118 619 q 351 724 268 724 q 522 636 482 724 l 574 1000 l 849 1000 l 793 614 m 424 550 q 358 522 386 550 q 324 453 329 494 q 294 236 294 247 q 315 177 294 200 q 368 154 336 154 q 436 181 411 154 q 468 251 461 208 l 482 351 l 488 396 q 497 469 497 457 q 477 529 497 508 q 424 550 457 550 z "},"ð":{"ha":851,"x_min":21,"x_max":814,"o":"m 375 1026 q 497 965 443 1003 l 603 1011 l 668 940 l 581 901 q 751 683 688 807 q 814 432 814 560 q 810 369 814 401 l 806 340 q 732 156 792 236 q 582 31 672 75 q 388 -14 492 -14 l 343 -14 q 174 24 247 -14 q 61 129 101 61 q 21 288 21 197 q 25 340 21 314 l 29 369 q 96 535 42 463 q 231 653 150 608 q 406 708 313 697 q 394 751 404 725 q 368 806 385 778 l 269 763 l 199 833 l 310 882 q 206 951 261 931 l 208 957 l 375 1026 m 444 556 q 372 528 403 556 q 336 458 342 500 l 307 251 q 306 236 306 247 q 329 177 306 200 q 389 154 353 154 q 459 183 426 154 q 499 251 492 211 l 528 458 l 528 471 q 504 531 528 507 q 444 556 481 556 z "},"ď":{"ha":888,"x_min":25,"x_max":1172,"o":"m 793 614 l 783 543 q 738 203 736 221 q 744 165 738 178 q 772 153 750 153 q 824 171 796 153 l 803 18 q 734 -6 774 3 q 660 -14 694 -14 q 540 6 588 -14 q 475 82 492 25 q 388 12 433 38 q 274 -14 343 -14 q 92 58 158 -14 q 25 268 25 129 q 72 517 25 414 q 193 672 118 619 q 351 724 268 724 q 522 636 482 724 l 574 1000 l 849 1000 l 793 614 m 424 550 q 358 522 386 550 q 324 453 329 494 q 294 236 294 247 q 315 177 294 200 q 368 154 336 154 q 436 181 411 154 q 468 251 461 208 l 482 351 l 488 396 q 497 469 497 457 q 477 529 497 508 q 424 550 457 550 m 1172 953 l 1140 729 l 1035 469 l 904 469 l 988 699 l 871 699 l 907 953 l 1172 953 z "},"đ":{"ha":888,"x_min":25,"x_max":943,"o":"m 793 614 l 783 543 q 738 203 736 221 q 744 165 738 178 q 772 153 750 153 q 824 171 796 153 l 803 18 q 734 -6 774 3 q 660 -14 694 -14 q 540 6 588 -14 q 475 82 492 25 q 388 12 433 38 q 274 -14 343 -14 q 92 58 158 -14 q 25 268 25 129 q 72 517 25 414 q 193 672 118 619 q 351 724 268 724 q 522 636 482 724 l 549 822 l 396 822 l 413 925 l 563 925 l 574 1000 l 849 1000 l 838 925 l 943 925 l 926 822 l 824 822 l 793 614 m 488 396 q 497 469 497 457 q 477 529 497 508 q 424 550 457 550 q 358 522 386 550 q 324 453 329 494 q 294 236 294 247 q 315 177 294 200 q 368 154 336 154 q 436 181 411 154 q 468 251 461 208 l 482 351 l 488 396 z "},"e":{"ha":833,"x_min":22,"x_max":797,"o":"m 496 724 q 719 651 642 724 q 797 458 797 579 l 794 421 q 782 318 793 400 l 319 318 l 314 283 q 308 236 307 240 q 335 176 308 197 q 403 154 361 154 q 482 184 451 154 q 519 267 513 214 l 774 267 q 712 124 763 188 q 577 23 661 60 q 388 -14 493 -14 l 367 -14 q 188 21 267 -14 q 66 122 110 56 q 22 278 22 188 q 78 516 22 415 q 234 670 135 617 q 461 724 333 724 l 496 724 m 449 556 q 376 527 407 556 q 339 458 344 499 l 336 439 l 528 439 q 529 451 528 443 q 531 471 531 460 q 508 531 531 507 q 449 556 485 556 z "},"é":{"ha":833,"x_min":22,"x_max":797,"o":"m 761 1000 l 763 996 l 560 799 l 396 799 l 551 1000 l 761 1000 m 496 724 q 719 651 642 724 q 797 458 797 579 l 794 421 q 782 318 793 400 l 319 318 l 314 283 q 308 236 307 240 q 335 176 308 197 q 403 154 361 154 q 482 184 451 154 q 519 267 513 214 l 774 267 q 712 124 763 188 q 577 23 661 60 q 388 -14 493 -14 l 367 -14 q 188 21 267 -14 q 66 122 110 56 q 22 278 22 188 q 78 516 22 415 q 234 670 135 617 q 461 724 333 724 l 496 724 m 449 556 q 376 527 407 556 q 339 458 344 499 l 336 439 l 528 439 q 529 451 528 443 q 531 471 531 460 q 508 531 531 507 q 449 556 485 556 z "},"ě":{"ha":833,"x_min":22,"x_max":810,"o":"m 496 724 q 719 651 642 724 q 797 458 797 579 l 794 421 q 782 318 793 400 l 319 318 l 314 283 q 308 236 307 240 q 335 176 308 197 q 403 154 361 154 q 482 184 451 154 q 519 267 513 214 l 774 267 q 712 124 763 188 q 577 23 661 60 q 388 -14 493 -14 l 367 -14 q 188 21 267 -14 q 66 122 110 56 q 22 278 22 188 q 78 516 22 415 q 234 670 135 617 q 461 724 333 724 l 496 724 m 449 556 q 376 527 407 556 q 339 458 344 499 l 336 439 l 528 439 q 529 451 528 443 q 531 471 531 460 q 508 531 531 507 q 449 556 485 556 m 810 1000 l 588 799 l 410 799 l 246 1000 l 426 1000 l 514 893 l 632 1000 l 810 1000 z "},"ê":{"ha":833,"x_min":22,"x_max":797,"o":"m 619 1000 l 783 799 l 603 799 l 515 906 l 397 799 l 219 799 l 442 1000 l 619 1000 m 496 724 q 719 651 642 724 q 797 458 797 579 l 794 421 q 782 318 793 400 l 319 318 l 314 283 q 308 236 307 240 q 335 176 308 197 q 403 154 361 154 q 482 184 451 154 q 519 267 513 214 l 774 267 q 712 124 763 188 q 577 23 661 60 q 388 -14 493 -14 l 367 -14 q 188 21 267 -14 q 66 122 110 56 q 22 278 22 188 q 78 516 22 415 q 234 670 135 617 q 461 724 333 724 l 496 724 m 449 556 q 376 527 407 556 q 339 458 344 499 l 336 439 l 528 439 q 529 451 528 443 q 531 471 531 460 q 508 531 531 507 q 449 556 485 556 z "},"ë":{"ha":833,"x_min":22,"x_max":797,"o":"m 468 1000 l 439 796 l 228 796 l 257 1000 l 468 1000 m 774 1000 l 744 796 l 533 796 l 563 1000 l 774 1000 m 496 724 q 719 651 642 724 q 797 458 797 579 l 794 421 q 782 318 793 400 l 319 318 l 314 283 q 308 236 307 240 q 335 176 308 197 q 403 154 361 154 q 482 184 451 154 q 519 267 513 214 l 774 267 q 712 124 763 188 q 577 23 661 60 q 388 -14 493 -14 l 367 -14 q 188 21 267 -14 q 66 122 110 56 q 22 278 22 188 q 78 516 22 415 q 234 670 135 617 q 461 724 333 724 l 496 724 m 449 556 q 376 527 407 556 q 339 458 344 499 l 336 439 l 528 439 q 529 451 528 443 q 531 471 531 460 q 508 531 531 507 q 449 556 485 556 z "},"ė":{"ha":833,"x_min":22,"x_max":797,"o":"m 496 724 q 719 651 642 724 q 797 458 797 579 l 794 421 q 782 318 793 400 l 319 318 l 314 283 q 308 236 307 240 q 335 176 308 197 q 403 154 361 154 q 482 184 451 154 q 519 267 513 214 l 774 267 q 712 124 763 188 q 577 23 661 60 q 388 -14 493 -14 l 367 -14 q 188 21 267 -14 q 66 122 110 56 q 22 278 22 188 q 78 516 22 415 q 234 670 135 617 q 461 724 333 724 l 496 724 m 449 556 q 376 527 407 556 q 339 458 344 499 l 336 439 l 528 439 q 529 451 528 443 q 531 471 531 460 q 508 531 531 507 q 449 556 485 556 m 621 1051 l 592 847 l 381 847 l 410 1051 l 621 1051 z "},"è":{"ha":833,"x_min":22,"x_max":797,"o":"m 468 1000 l 565 799 l 401 799 l 254 996 l 258 1000 l 468 1000 m 496 724 q 719 651 642 724 q 797 458 797 579 l 794 421 q 782 318 793 400 l 319 318 l 314 283 q 308 236 307 240 q 335 176 308 197 q 403 154 361 154 q 482 184 451 154 q 519 267 513 214 l 774 267 q 712 124 763 188 q 577 23 661 60 q 388 -14 493 -14 l 367 -14 q 188 21 267 -14 q 66 122 110 56 q 22 278 22 188 q 78 516 22 415 q 234 670 135 617 q 461 724 333 724 l 496 724 m 449 556 q 376 527 407 556 q 339 458 344 499 l 336 439 l 528 439 q 529 451 528 443 q 531 471 531 460 q 508 531 531 507 q 449 556 485 556 z "},"ē":{"ha":833,"x_min":22,"x_max":797,"o":"m 496 724 q 719 651 642 724 q 797 458 797 579 l 794 421 q 782 318 793 400 l 319 318 l 314 283 q 308 236 307 240 q 335 176 308 197 q 403 154 361 154 q 482 184 451 154 q 519 267 513 214 l 774 267 q 712 124 763 188 q 577 23 661 60 q 388 -14 493 -14 l 367 -14 q 188 21 267 -14 q 66 122 110 56 q 22 278 22 188 q 78 516 22 415 q 234 670 135 617 q 461 724 333 724 l 496 724 m 449 556 q 376 527 407 556 q 339 458 344 499 l 336 439 l 528 439 q 529 451 528 443 q 531 471 531 460 q 508 531 531 507 q 449 556 485 556 m 707 1022 l 707 919 l 265 919 l 265 1022 l 707 1022 z "},"ę":{"ha":833,"x_min":22,"x_max":797,"o":"m 496 724 q 719 651 642 724 q 797 458 797 579 l 794 421 q 782 318 793 400 l 319 318 l 314 283 q 308 236 307 240 q 335 176 308 197 q 403 154 361 154 q 482 184 451 154 q 519 267 513 214 l 774 267 q 685 95 760 168 q 494 -3 611 22 q 442 -40 463 -21 q 422 -86 422 -60 q 439 -115 422 -106 q 478 -125 456 -125 q 574 -106 518 -125 l 583 -165 q 433 -199 511 -199 q 347 -178 382 -199 q 313 -115 313 -158 q 331 -60 313 -83 q 381 -14 349 -36 l 367 -14 q 188 21 267 -14 q 66 122 110 56 q 22 278 22 188 q 78 516 22 415 q 234 670 135 617 q 461 724 333 724 l 496 724 m 528 439 q 529 451 528 443 q 531 471 531 460 q 508 531 531 507 q 449 556 485 556 q 376 527 407 556 q 339 458 344 499 l 336 439 l 528 439 z "},"f":{"ha":581,"x_min":-131,"x_max":644,"o":"m 464 1011 q 561 1003 507 1011 q 644 981 615 996 l 624 828 q 539 842 576 842 q 469 815 486 842 q 448 755 453 789 q 442 710 443 721 l 608 710 l 581 513 l 414 513 l 338 -36 q 244 -203 322 -146 q 51 -260 167 -260 q -47 -252 7 -260 q -131 -229 -100 -244 l -108 -74 q -67 -85 -92 -81 q -25 -90 -43 -90 q 39 -65 18 -90 q 68 6 60 -40 l 139 513 l 50 513 l 78 710 l 167 710 l 179 801 q 270 961 194 911 q 464 1011 346 1011 z "},"g":{"ha":833,"x_min":-4,"x_max":804,"o":"m 382 724 q 509 694 453 724 q 597 606 565 665 l 707 710 l 804 710 l 713 56 q 590 -179 690 -100 q 340 -258 489 -258 q 94 -204 193 -258 q -4 -26 -4 -150 l 272 -26 q 292 -68 272 -49 q 350 -87 311 -87 q 409 -60 392 -87 q 433 10 426 -33 l 446 114 q 356 49 407 72 q 249 26 306 26 q 81 104 136 26 q 25 300 25 182 q 63 501 25 404 q 182 661 101 599 q 382 724 263 724 m 421 556 q 355 528 383 556 q 321 458 326 501 l 308 375 q 300 318 303 343 q 297 282 297 293 q 318 223 297 246 q 371 200 339 200 q 440 227 414 200 q 471 297 465 254 l 479 356 q 494 475 494 456 q 474 535 494 514 q 421 556 454 556 z "},"ğ":{"ha":833,"x_min":-4,"x_max":804,"o":"m 382 724 q 509 694 453 724 q 597 606 565 665 l 707 710 l 804 710 l 713 56 q 590 -179 690 -100 q 340 -258 489 -258 q 94 -204 193 -258 q -4 -26 -4 -150 l 272 -26 q 292 -68 272 -49 q 350 -87 311 -87 q 409 -60 392 -87 q 433 10 426 -33 l 446 114 q 356 49 407 72 q 249 26 306 26 q 81 104 136 26 q 25 300 25 182 q 63 501 25 404 q 182 661 101 599 q 382 724 263 724 m 421 556 q 355 528 383 556 q 321 458 326 501 l 308 375 q 300 318 303 343 q 297 282 297 293 q 318 223 297 246 q 371 200 339 200 q 440 227 414 200 q 471 297 465 254 l 479 356 q 494 475 494 456 q 474 535 494 514 q 421 556 454 556 m 753 1024 q 716 944 753 985 q 617 878 679 904 q 485 851 556 851 q 352 878 414 851 q 254 944 290 904 q 218 1024 218 985 l 351 1024 q 370 1003 351 1015 q 419 981 389 990 q 485 971 450 971 q 551 981 519 971 q 601 1003 582 990 q 621 1024 621 1015 l 753 1024 z "},"ģ":{"ha":833,"x_min":-4,"x_max":804,"o":"m 331 807 l 354 972 l 415 1126 l 546 1126 l 507 1017 l 625 1017 l 596 807 l 331 807 m 382 724 q 509 694 453 724 q 597 606 565 665 l 707 710 l 804 710 l 713 56 q 590 -179 690 -100 q 340 -258 489 -258 q 94 -204 193 -258 q -4 -26 -4 -150 l 272 -26 q 292 -68 272 -49 q 350 -87 311 -87 q 409 -60 392 -87 q 433 10 426 -33 l 446 114 q 356 49 407 72 q 249 26 306 26 q 81 104 136 26 q 25 300 25 182 q 63 501 25 404 q 182 661 101 599 q 382 724 263 724 m 421 556 q 355 528 383 556 q 321 458 326 501 l 308 375 q 300 318 303 343 q 297 282 297 293 q 318 223 297 246 q 371 200 339 200 q 440 227 414 200 q 471 297 465 254 l 479 356 q 494 475 494 456 q 474 535 494 514 q 421 556 454 556 z "},"h":{"ha":829,"x_min":13,"x_max":782,"o":"m 374 626 q 452 694 400 664 q 583 724 504 724 q 740 665 699 724 q 782 544 782 607 l 782 528 q 768 421 782 510 q 708 0 750 303 l 433 0 q 490 401 479 336 q 497 463 497 446 q 481 509 497 490 q 433 528 464 528 q 376 504 399 528 q 349 444 354 481 l 286 0 l 13 0 l 151 1000 l 426 1000 l 374 626 z "},"i":{"ha":411,"x_min":13,"x_max":425,"o":"m 425 1000 l 397 801 l 124 801 l 151 1000 l 425 1000 m 385 710 l 285 0 l 13 0 l 111 710 l 385 710 z "},"ı":{"ha":411,"x_min":13,"x_max":385,"o":"m 385 710 l 286 0 l 13 0 l 111 710 l 385 710 z "},"í":{"ha":411,"x_min":13,"x_max":494,"o":"m 493 1000 l 494 996 l 292 799 l 128 799 l 283 1000 l 493 1000 m 385 710 l 286 0 l 13 0 l 111 710 l 385 710 z "},"î":{"ha":411,"x_min":-25,"x_max":539,"o":"m 375 1000 l 539 799 l 358 799 l 271 906 l 153 799 l -25 799 l 197 1000 l 375 1000 m 385 710 l 286 0 l 13 0 l 111 710 l 385 710 z "},"ï":{"ha":411,"x_min":1,"x_max":547,"o":"m 242 1000 l 213 796 l 1 796 l 31 1000 l 242 1000 m 547 1000 l 518 796 l 307 796 l 336 1000 l 547 1000 m 385 710 l 286 0 l 13 0 l 111 710 l 385 710 z "},"ì":{"ha":411,"x_min":13,"x_max":385,"o":"m 281 1000 l 378 799 l 214 799 l 67 996 l 71 1000 l 281 1000 m 385 710 l 286 0 l 13 0 l 111 710 l 385 710 z "},"ī":{"ha":411,"x_min":13,"x_max":483,"o":"m 385 710 l 286 0 l 13 0 l 111 710 l 385 710 m 483 1022 l 483 919 l 42 919 l 42 1022 l 483 1022 z "},"į":{"ha":411,"x_min":13,"x_max":425,"o":"m 151 1000 l 425 1000 l 397 801 l 124 801 l 151 1000 m 272 0 q 215 -40 236 -21 q 194 -86 194 -58 q 211 -115 194 -106 q 250 -125 228 -125 q 346 -106 290 -125 l 356 -165 q 206 -199 282 -199 q 119 -178 154 -199 q 85 -115 85 -158 q 109 -52 85 -79 q 175 0 133 -25 l 13 0 l 111 710 l 385 710 l 286 0 l 272 0 z "},"j":{"ha":414,"x_min":-183,"x_max":428,"o":"m 428 1000 l 400 801 l 124 801 l 151 1000 l 428 1000 m 282 -36 q 190 -203 267 -146 q -3 -260 114 -260 q -97 -251 -42 -260 q -183 -229 -151 -242 l -161 -74 q -120 -85 -146 -81 q -78 -90 -94 -90 q -19 -70 -43 -90 q 13 6 6 -50 l 111 710 l 388 710 l 282 -36 z "},"k":{"ha":835,"x_min":13,"x_max":881,"o":"m 426 1000 l 349 446 l 567 710 l 881 710 l 586 389 l 785 0 l 461 0 l 364 201 l 308 158 l 286 0 l 13 0 l 151 1000 l 426 1000 z "},"ķ":{"ha":835,"x_min":13,"x_max":881,"o":"m 426 1000 l 349 446 l 567 710 l 881 710 l 586 389 l 785 0 l 461 0 l 364 201 l 308 158 l 286 0 l 13 0 l 151 1000 l 426 1000 m 546 -28 l 522 -193 l 461 -347 l 331 -347 l 369 -237 l 251 -237 l 281 -28 l 546 -28 z "},"l":{"ha":413,"x_min":13,"x_max":426,"o":"m 426 1000 l 286 0 l 13 0 l 151 1000 l 426 1000 z "},"ĺ":{"ha":413,"x_min":13,"x_max":549,"o":"m 426 1000 l 286 0 l 13 0 l 151 1000 l 426 1000 m 547 1243 l 549 1239 l 346 1042 l 182 1042 l 338 1243 l 547 1243 z "},"ľ":{"ha":413,"x_min":13,"x_max":763,"o":"m 426 1000 l 286 0 l 13 0 l 151 1000 l 426 1000 m 763 953 l 731 729 l 625 469 l 494 469 l 578 699 l 461 699 l 497 953 l 763 953 z "},"ļ":{"ha":413,"x_min":-17,"x_max":426,"o":"m 426 1000 l 286 0 l 13 0 l 151 1000 l 426 1000 m 278 -28 l 254 -193 l 193 -347 l 63 -347 l 101 -237 l -17 -237 l 13 -28 l 278 -28 z "},"ł":{"ha":481,"x_min":15,"x_max":507,"o":"m 461 1000 l 415 678 l 507 721 l 486 575 l 396 533 l 321 0 l 47 0 l 101 396 l 15 354 l 35 500 l 122 540 l 186 1000 l 461 1000 z "},"m":{"ha":1207,"x_min":11,"x_max":1160,"o":"m 961 724 q 1108 674 1057 724 q 1160 544 1160 624 q 1136 353 1160 514 l 1122 256 l 1110 168 q 1086 0 1093 43 l 817 0 q 857 281 829 97 q 881 464 881 442 q 865 509 881 492 q 824 526 849 526 q 772 506 793 526 q 746 450 750 485 l 683 0 l 414 0 q 454 281 426 97 q 478 464 478 442 q 462 509 478 492 q 421 526 446 526 q 369 506 390 526 q 343 450 347 485 l 281 0 l 11 0 l 111 710 l 317 710 l 331 607 q 418 685 358 647 q 558 724 478 724 q 678 696 633 724 q 743 615 722 668 q 833 695 781 667 q 961 724 885 724 z "},"n":{"ha":829,"x_min":11,"x_max":782,"o":"m 582 724 q 730 674 678 724 q 782 544 782 624 q 758 354 782 517 l 744 257 l 732 167 q 708 0 714 35 l 433 0 q 472 271 453 151 q 497 458 497 446 q 481 508 497 489 q 433 528 464 528 q 376 504 399 528 q 349 444 354 481 l 286 0 l 11 0 l 111 710 l 318 710 l 331 607 q 582 724 419 724 z "},"ń":{"ha":829,"x_min":11,"x_max":782,"o":"m 582 724 q 730 674 678 724 q 782 544 782 624 q 758 354 782 517 l 744 257 l 732 167 q 708 0 714 35 l 433 0 q 472 271 453 151 q 497 458 497 446 q 481 508 497 489 q 433 528 464 528 q 376 504 399 528 q 349 444 354 481 l 286 0 l 11 0 l 111 710 l 318 710 l 331 607 q 582 724 419 724 m 778 1000 l 779 996 l 576 799 l 413 799 l 568 1000 l 778 1000 z "},"ň":{"ha":829,"x_min":11,"x_max":850,"o":"m 582 724 q 730 674 678 724 q 782 544 782 624 q 758 354 782 517 l 744 257 l 732 167 q 708 0 714 35 l 433 0 q 472 271 453 151 q 497 458 497 446 q 481 508 497 489 q 433 528 464 528 q 376 504 399 528 q 349 444 354 481 l 286 0 l 11 0 l 111 710 l 318 710 l 331 607 q 582 724 419 724 m 850 1000 l 628 799 l 450 799 l 286 1000 l 467 1000 l 554 893 l 672 1000 l 850 1000 z "},"ņ":{"ha":829,"x_min":11,"x_max":782,"o":"m 582 724 q 730 674 678 724 q 782 544 782 624 q 758 354 782 517 l 744 257 l 732 167 q 708 0 714 35 l 433 0 q 472 271 453 151 q 497 458 497 446 q 481 508 497 489 q 433 528 464 528 q 376 504 399 528 q 349 444 354 481 l 286 0 l 11 0 l 111 710 l 318 710 l 331 607 q 582 724 419 724 m 543 -28 l 519 -193 l 458 -347 l 328 -347 l 367 -237 l 249 -237 l 278 -28 l 543 -28 z "},"ñ":{"ha":829,"x_min":11,"x_max":799,"o":"m 799 1000 q 760 903 790 949 q 681 830 729 858 q 575 801 633 801 q 517 808 544 801 q 449 831 490 815 q 391 850 415 843 q 343 857 367 857 q 298 842 318 857 q 265 801 278 826 l 154 801 q 193 898 163 853 q 272 972 224 943 q 376 1000 319 1000 q 435 992 407 1000 q 503 971 463 985 q 608 944 568 944 q 653 960 633 944 q 686 1000 674 975 l 799 1000 m 582 724 q 730 674 678 724 q 782 544 782 624 q 758 354 782 517 l 744 257 l 732 167 q 708 0 714 35 l 433 0 q 472 271 453 151 q 497 458 497 446 q 481 508 497 489 q 433 528 464 528 q 376 504 399 528 q 349 444 354 481 l 286 0 l 11 0 l 111 710 l 318 710 l 331 607 q 582 724 419 724 z "},"o":{"ha":851,"x_min":22,"x_max":815,"o":"m 472 724 q 726 642 636 724 q 815 424 815 561 q 761 199 815 299 q 610 42 707 99 q 389 -14 513 -14 l 368 -14 q 112 67 201 -14 q 22 285 22 149 q 69 495 22 394 q 213 660 117 596 q 449 724 310 724 l 472 724 m 447 556 q 375 528 406 556 q 338 458 344 500 q 317 323 325 382 q 307 238 308 264 q 331 178 307 201 q 390 154 354 154 q 463 182 433 154 q 500 251 493 210 l 515 353 l 531 471 q 508 530 531 504 q 447 556 485 556 z "},"ó":{"ha":851,"x_min":22,"x_max":815,"o":"m 764 1000 l 765 996 l 563 799 l 399 799 l 554 1000 l 764 1000 m 472 724 q 726 642 636 724 q 815 424 815 561 q 761 199 815 299 q 610 42 707 99 q 389 -14 513 -14 l 368 -14 q 112 67 201 -14 q 22 285 22 149 q 69 495 22 394 q 213 660 117 596 q 449 724 310 724 l 472 724 m 447 556 q 375 528 406 556 q 338 458 344 500 q 317 323 325 382 q 307 238 308 264 q 331 178 307 201 q 390 154 354 154 q 463 182 433 154 q 500 251 493 210 l 515 353 l 531 471 q 508 530 531 504 q 447 556 485 556 z "},"ô":{"ha":851,"x_min":22,"x_max":815,"o":"m 606 1000 l 769 799 l 589 799 l 501 906 l 383 799 l 206 799 l 428 1000 l 606 1000 m 472 724 q 726 642 636 724 q 815 424 815 561 q 761 199 815 299 q 610 42 707 99 q 389 -14 513 -14 l 368 -14 q 112 67 201 -14 q 22 285 22 149 q 69 495 22 394 q 213 660 117 596 q 449 724 310 724 l 472 724 m 447 556 q 375 528 406 556 q 338 458 344 500 q 317 323 325 382 q 307 238 308 264 q 331 178 307 201 q 390 154 354 154 q 463 182 433 154 q 500 251 493 210 l 515 353 l 531 471 q 508 530 531 504 q 447 556 485 556 z "},"ö":{"ha":851,"x_min":22,"x_max":815,"o":"m 465 1000 l 436 796 l 225 796 l 254 1000 l 465 1000 m 771 1000 l 742 796 l 531 796 l 560 1000 l 771 1000 m 472 724 q 726 642 636 724 q 815 424 815 561 q 761 199 815 299 q 610 42 707 99 q 389 -14 513 -14 l 368 -14 q 112 67 201 -14 q 22 285 22 149 q 69 495 22 394 q 213 660 117 596 q 449 724 310 724 l 472 724 m 447 556 q 375 528 406 556 q 338 458 344 500 q 317 323 325 382 q 307 238 308 264 q 331 178 307 201 q 390 154 354 154 q 463 182 433 154 q 500 251 493 210 l 515 353 l 531 471 q 508 530 531 504 q 447 556 485 556 z "},"ò":{"ha":851,"x_min":22,"x_max":815,"o":"m 457 1000 l 554 799 l 390 799 l 243 996 l 247 1000 l 457 1000 m 472 724 q 726 642 636 724 q 815 424 815 561 q 761 199 815 299 q 610 42 707 99 q 389 -14 513 -14 l 368 -14 q 112 67 201 -14 q 22 285 22 149 q 69 495 22 394 q 213 660 117 596 q 449 724 310 724 l 472 724 m 447 556 q 375 528 406 556 q 338 458 344 500 q 317 323 325 382 q 307 238 308 264 q 331 178 307 201 q 390 154 354 154 q 463 182 433 154 q 500 251 493 210 l 515 353 l 531 471 q 508 530 531 504 q 447 556 485 556 z "},"ő":{"ha":851,"x_min":22,"x_max":933,"o":"m 472 724 q 726 642 636 724 q 815 424 815 561 q 761 199 815 299 q 610 42 707 99 q 389 -14 513 -14 l 368 -14 q 112 67 201 -14 q 22 285 22 149 q 69 495 22 394 q 213 660 117 596 q 449 724 310 724 l 472 724 m 447 556 q 375 528 406 556 q 338 458 344 500 q 317 323 325 382 q 307 238 308 264 q 331 178 307 201 q 390 154 354 154 q 463 182 433 154 q 500 251 493 210 l 515 353 l 531 471 q 508 530 531 504 q 447 556 485 556 m 617 1000 l 618 996 l 415 799 l 251 799 l 407 1000 l 617 1000 m 932 1000 l 933 996 l 731 799 l 567 799 l 722 1000 l 932 1000 z "},"ō":{"ha":851,"x_min":22,"x_max":815,"o":"m 472 724 q 726 642 636 724 q 815 424 815 561 q 761 199 815 299 q 610 42 707 99 q 389 -14 513 -14 l 368 -14 q 112 67 201 -14 q 22 285 22 149 q 69 495 22 394 q 213 660 117 596 q 449 724 310 724 l 472 724 m 447 556 q 375 528 406 556 q 338 458 344 500 q 317 323 325 382 q 307 238 308 264 q 331 178 307 201 q 390 154 354 154 q 463 182 433 154 q 500 251 493 210 l 515 353 l 531 471 q 508 530 531 504 q 447 556 485 556 m 731 1022 l 731 919 l 289 919 l 289 1022 l 731 1022 z "},"ø":{"ha":851,"x_min":19,"x_max":819,"o":"m 713 653 q 815 424 815 571 q 761 199 815 299 q 610 42 707 99 q 389 -14 513 -14 l 368 -14 q 214 10 285 -14 l 147 -76 l 19 -76 l 124 57 q 22 285 22 138 q 69 495 22 394 q 213 660 117 596 q 449 724 310 724 l 472 724 q 622 700 554 724 l 692 790 l 819 790 l 713 653 m 447 556 q 374 528 406 556 q 338 458 343 500 l 315 304 l 497 539 q 447 556 476 556 m 339 171 q 390 154 360 154 q 462 179 438 154 q 496 241 486 204 q 513 340 506 278 q 516 372 514 351 q 521 406 518 392 l 339 171 z "},"õ":{"ha":851,"x_min":22,"x_max":819,"o":"m 819 1000 q 781 903 811 949 q 702 830 750 858 q 596 801 654 801 q 538 808 565 801 q 469 831 511 815 q 412 850 436 843 q 364 857 388 857 q 319 842 339 857 q 286 801 299 826 l 175 801 q 214 898 183 853 q 292 972 244 943 q 397 1000 340 1000 q 456 992 428 1000 q 524 971 483 985 q 629 944 589 944 q 674 960 654 944 q 707 1000 694 975 l 819 1000 m 472 724 q 726 642 636 724 q 815 424 815 561 q 761 199 815 299 q 610 42 707 99 q 389 -14 513 -14 l 368 -14 q 112 67 201 -14 q 22 285 22 149 q 69 495 22 394 q 213 660 117 596 q 449 724 310 724 l 472 724 m 447 556 q 375 528 406 556 q 338 458 344 500 q 317 323 325 382 q 307 238 308 264 q 331 178 307 201 q 390 154 354 154 q 463 182 433 154 q 500 251 493 210 l 515 353 l 531 471 q 508 530 531 504 q 447 556 485 556 z "},"œ":{"ha":1310,"x_min":22,"x_max":1274,"o":"m 972 724 q 1196 651 1118 724 q 1274 458 1274 579 q 1272 444 1274 449 l 1271 421 q 1258 318 1269 400 l 796 318 l 790 283 q 785 236 783 240 q 811 176 785 197 q 879 154 838 154 q 958 184 928 154 q 996 267 989 214 l 1250 267 q 1188 124 1239 188 q 1053 23 1138 60 q 864 -14 969 -14 l 843 -14 q 617 46 706 -14 q 389 -14 513 -14 l 368 -14 q 112 67 201 -14 q 22 285 22 149 q 69 495 22 394 q 213 660 117 596 q 449 724 310 724 l 472 724 q 697 664 607 724 q 938 724 799 724 l 972 724 m 447 556 q 375 528 406 556 q 338 458 344 500 q 317 323 325 382 q 307 238 308 264 q 331 178 307 201 q 390 154 354 154 q 463 182 433 154 q 500 251 493 210 l 515 353 l 531 471 q 508 530 531 504 q 447 556 485 556 m 925 556 q 852 527 883 556 q 815 458 821 499 l 813 439 l 1004 439 q 1006 451 1004 443 q 1007 471 1007 460 q 984 531 1007 507 q 925 556 961 556 z "},"p":{"ha":832,"x_min":-22,"x_max":794,"o":"m 538 724 q 724 652 654 724 q 794 443 794 581 q 760 231 794 336 q 653 56 726 126 q 468 -14 579 -14 q 360 11 407 -14 q 297 74 314 36 l 251 -251 l -22 -251 l 111 710 l 331 710 l 344 628 q 432 697 386 671 q 538 724 478 724 m 451 556 q 385 528 414 556 q 351 458 357 500 q 322 242 322 253 q 343 183 322 206 q 396 160 364 160 q 464 187 439 160 q 496 257 489 214 l 510 357 l 515 401 q 525 475 525 463 q 505 535 525 514 q 451 556 485 556 z "},"þ":{"ha":832,"x_min":-24,"x_max":794,"o":"m 375 636 q 571 724 443 724 q 733 654 672 724 q 794 453 794 585 q 788 363 794 415 l 786 347 q 723 149 769 231 q 609 26 676 67 q 467 -14 542 -14 q 296 74 336 -14 l 250 -251 l -24 -251 l 151 1000 l 426 1000 l 375 636 m 450 556 q 385 527 414 556 q 350 458 356 499 l 322 257 q 321 240 321 253 q 342 183 321 206 q 394 160 363 160 q 459 188 429 160 q 494 257 489 217 l 524 472 q 503 532 524 508 q 450 556 482 556 z "},"q":{"ha":832,"x_min":22,"x_max":806,"o":"m 383 722 q 507 697 456 722 q 590 615 558 671 l 708 710 l 806 710 l 671 -250 l 396 -250 l 442 72 q 246 -15 354 -15 q 83 54 144 -15 q 22 256 22 124 q 59 478 22 371 q 177 653 96 585 q 383 722 258 722 m 422 554 q 356 526 385 554 q 322 457 328 499 q 293 240 293 251 q 314 181 293 204 q 367 158 335 158 q 435 185 410 158 q 467 256 460 213 l 481 356 l 486 400 q 496 474 496 461 q 476 533 496 513 q 422 554 456 554 z "},"r":{"ha":700,"x_min":11,"x_max":706,"o":"m 536 724 q 662 683 618 724 q 706 569 706 642 q 689 461 706 544 q 682 422 688 446 l 457 422 q 459 447 457 436 q 461 467 461 458 q 413 525 461 525 q 366 506 385 525 q 343 456 347 486 l 279 0 l 11 0 l 111 710 l 317 710 l 332 607 q 369 650 340 622 q 441 701 397 678 q 536 724 485 724 z "},"ŕ":{"ha":700,"x_min":11,"x_max":706,"o":"m 536 724 q 662 683 618 724 q 706 569 706 642 q 689 461 706 544 q 682 422 688 446 l 457 422 q 459 447 457 436 q 461 467 461 458 q 413 525 461 525 q 366 506 385 525 q 343 456 347 486 l 279 0 l 11 0 l 111 710 l 317 710 l 332 607 q 369 650 340 622 q 441 701 397 678 q 536 724 485 724 m 560 1000 l 561 996 l 358 799 l 194 799 l 350 1000 l 560 1000 z "},"ř":{"ha":700,"x_min":11,"x_max":706,"o":"m 536 724 q 662 683 618 724 q 706 569 706 642 q 689 461 706 544 q 682 422 688 446 l 457 422 q 459 447 457 436 q 461 467 461 458 q 413 525 461 525 q 366 506 385 525 q 343 456 347 486 l 279 0 l 11 0 l 111 710 l 317 710 l 332 607 q 369 650 340 622 q 441 701 397 678 q 536 724 485 724 m 632 1000 l 410 799 l 232 799 l 68 1000 l 249 1000 l 336 893 l 454 1000 l 632 1000 z "},"ŗ":{"ha":700,"x_min":-21,"x_max":706,"o":"m 536 724 q 662 683 618 724 q 706 569 706 642 q 689 461 706 544 q 682 422 688 446 l 457 422 q 459 447 457 436 q 461 467 461 458 q 413 525 461 525 q 366 506 385 525 q 343 456 347 486 l 279 0 l 11 0 l 111 710 l 317 710 l 332 607 q 369 650 340 622 q 441 701 397 678 q 536 724 485 724 m 274 -28 l 250 -193 l 189 -347 l 58 -347 l 97 -237 l -21 -237 l 8 -28 l 274 -28 z "},"s":{"ha":776,"x_min":1,"x_max":743,"o":"m 446 724 q 655 679 567 724 q 743 551 743 635 q 738 513 743 528 q 733 497 733 499 l 506 497 l 506 504 q 479 547 506 535 q 417 560 453 560 q 308 515 308 560 q 339 484 308 493 q 436 467 369 475 q 576 444 519 458 q 675 390 633 429 q 717 276 717 350 q 624 66 717 146 q 333 -14 531 -14 l 319 -14 q 84 33 167 -14 q 1 176 1 79 q 7 232 1 210 l 232 232 q 231 226 231 231 l 231 217 q 265 169 231 183 q 340 154 299 154 q 424 163 383 154 q 465 201 465 172 q 435 235 465 225 q 335 256 404 244 q 197 282 253 267 q 101 337 142 297 q 61 447 61 376 q 117 603 61 540 q 258 694 172 665 q 435 724 344 724 l 446 724 z "},"ś":{"ha":776,"x_min":1,"x_max":743,"o":"m 446 724 q 655 679 567 724 q 743 551 743 635 q 738 513 743 528 q 733 497 733 499 l 506 497 l 506 504 q 479 547 506 535 q 417 560 453 560 q 308 515 308 560 q 339 484 308 493 q 436 467 369 475 q 576 444 519 458 q 675 390 633 429 q 717 276 717 350 q 624 66 717 146 q 333 -14 531 -14 l 319 -14 q 84 33 167 -14 q 1 176 1 79 q 7 232 1 210 l 232 232 q 231 226 231 231 l 231 217 q 265 169 231 183 q 340 154 299 154 q 424 163 383 154 q 465 201 465 172 q 435 235 465 225 q 335 256 404 244 q 197 282 253 267 q 101 337 142 297 q 61 447 61 376 q 117 603 61 540 q 258 694 172 665 q 435 724 344 724 l 446 724 m 696 1000 l 697 996 l 494 799 l 331 799 l 486 1000 l 696 1000 z "},"š":{"ha":776,"x_min":1,"x_max":763,"o":"m 763 1000 l 540 799 l 363 799 l 199 1000 l 379 1000 l 467 893 l 585 1000 l 763 1000 m 446 724 q 655 679 567 724 q 743 551 743 635 q 738 513 743 528 q 733 497 733 499 l 506 497 l 506 504 q 479 547 506 535 q 417 560 453 560 q 308 515 308 560 q 339 484 308 493 q 436 467 369 475 q 576 444 519 458 q 675 390 633 429 q 717 276 717 350 q 624 66 717 146 q 333 -14 531 -14 l 319 -14 q 84 33 167 -14 q 1 176 1 79 q 7 232 1 210 l 232 232 q 231 226 231 231 l 231 217 q 265 169 231 183 q 340 154 299 154 q 424 163 383 154 q 465 201 465 172 q 435 235 465 225 q 335 256 404 244 q 197 282 253 267 q 101 337 142 297 q 61 447 61 376 q 117 603 61 540 q 258 694 172 665 q 435 724 344 724 l 446 724 z "},"ş":{"ha":776,"x_min":1,"x_max":743,"o":"m 446 724 q 655 679 567 724 q 743 551 743 635 q 738 513 743 528 q 733 497 733 499 l 506 497 l 506 504 q 479 547 506 535 q 417 560 453 560 q 308 515 308 560 q 339 484 308 493 q 436 467 369 475 q 576 444 519 458 q 675 390 633 429 q 717 276 717 350 q 624 66 717 146 q 333 -14 531 -14 l 319 -14 q 84 33 167 -14 q 1 176 1 79 q 7 232 1 210 l 232 232 q 231 226 231 231 l 231 217 q 265 169 231 183 q 340 154 299 154 q 424 163 383 154 q 465 201 465 172 q 435 235 465 225 q 335 256 404 244 q 197 282 253 267 q 101 337 142 297 q 61 447 61 376 q 117 603 61 540 q 258 694 172 665 q 435 724 344 724 l 446 724 m 411 -24 q 521 -47 478 -24 q 564 -128 564 -71 l 564 -139 q 505 -243 564 -212 q 382 -274 446 -274 q 286 -260 331 -274 q 214 -224 242 -247 l 269 -149 q 310 -179 282 -165 q 381 -193 339 -193 q 443 -139 443 -193 q 396 -106 443 -106 l 371 -106 l 382 -24 l 411 -24 z "},"ș":{"ha":776,"x_min":1,"x_max":743,"o":"m 446 724 q 655 679 567 724 q 743 551 743 635 q 738 513 743 528 q 733 497 733 499 l 506 497 l 506 504 q 479 547 506 535 q 417 560 453 560 q 308 515 308 560 q 339 484 308 493 q 436 467 369 475 q 576 444 519 458 q 675 390 633 429 q 717 276 717 350 q 624 66 717 146 q 333 -14 531 -14 l 319 -14 q 84 33 167 -14 q 1 176 1 79 q 7 232 1 210 l 232 232 q 231 226 231 231 l 231 217 q 265 169 231 183 q 340 154 299 154 q 424 163 383 154 q 465 201 465 172 q 435 235 465 225 q 335 256 404 244 q 197 282 253 267 q 101 337 142 297 q 61 447 61 376 q 117 603 61 540 q 258 694 172 665 q 435 724 344 724 l 446 724 m 517 -28 l 493 -193 l 432 -347 l 301 -347 l 340 -237 l 222 -237 l 251 -28 l 517 -28 z "},"ß":{"ha":906,"x_min":50,"x_max":886,"o":"m 569 1011 q 792 957 699 1011 q 886 790 886 903 q 842 644 886 713 q 724 549 797 576 l 724 542 q 822 463 786 518 q 858 336 858 407 q 810 161 858 238 q 676 42 763 85 q 476 0 589 0 l 389 0 l 418 206 l 457 206 q 547 247 507 206 q 588 343 588 289 q 560 417 588 388 q 490 446 533 446 l 451 446 l 475 615 l 513 615 q 585 647 553 615 q 617 724 617 679 q 595 781 617 758 q 540 804 574 804 q 474 777 503 804 q 439 710 444 750 l 326 -92 l 51 -92 l 136 513 l 50 513 l 78 710 l 164 710 q 243 878 182 810 q 390 978 304 946 q 569 1011 476 1011 z "},"t":{"ha":582,"x_min":47,"x_max":594,"o":"m 428 710 l 594 710 l 567 513 l 400 513 q 360 224 360 240 q 377 168 360 182 q 429 154 394 154 q 473 159 446 154 q 517 171 500 164 l 494 15 q 402 -6 461 3 q 304 -15 343 -15 q 134 21 193 -15 q 75 142 75 57 q 78 184 75 158 q 90 269 81 210 l 125 513 l 47 513 l 75 710 l 153 710 l 185 936 l 475 936 l 428 710 z "},"ť":{"ha":582,"x_min":47,"x_max":944,"o":"m 428 710 l 594 710 l 567 513 l 400 513 q 360 224 360 240 q 377 168 360 182 q 429 154 394 154 q 473 159 446 154 q 517 171 500 164 l 494 15 q 402 -6 461 3 q 304 -15 343 -15 q 134 21 193 -15 q 75 142 75 57 q 78 184 75 158 q 90 269 81 210 l 125 513 l 47 513 l 75 710 l 153 710 l 185 936 l 475 936 l 428 710 m 944 953 l 913 729 l 807 469 l 676 469 l 760 699 l 643 699 l 679 953 l 944 953 z "},"ţ":{"ha":582,"x_min":47,"x_max":594,"o":"m 428 710 l 594 710 l 567 513 l 400 513 q 360 224 360 240 q 377 168 360 182 q 429 154 394 154 q 473 159 446 154 q 517 171 500 164 l 494 15 q 402 -6 461 3 q 304 -15 343 -15 q 134 21 193 -15 q 75 142 75 57 q 78 184 75 158 q 90 269 81 210 l 125 513 l 47 513 l 75 710 l 153 710 l 185 936 l 475 936 l 428 710 m 314 -24 q 424 -47 381 -24 q 467 -128 467 -71 l 467 -139 q 408 -243 467 -212 q 285 -274 349 -274 q 189 -260 233 -274 q 117 -224 144 -247 l 172 -149 q 213 -179 185 -165 q 283 -193 242 -193 q 346 -139 346 -193 q 299 -106 346 -106 l 274 -106 l 285 -24 l 314 -24 z "},"ț":{"ha":582,"x_min":47,"x_max":594,"o":"m 428 710 l 594 710 l 567 513 l 400 513 q 360 224 360 240 q 377 168 360 182 q 429 154 394 154 q 473 159 446 154 q 517 171 500 164 l 494 15 q 402 -6 461 3 q 304 -15 343 -15 q 134 21 193 -15 q 75 142 75 57 q 78 184 75 158 q 90 269 81 210 l 125 513 l 47 513 l 75 710 l 153 710 l 185 936 l 475 936 l 428 710 m 419 -28 l 396 -193 l 335 -347 l 204 -347 l 243 -237 l 125 -237 l 154 -28 l 419 -28 z "},"u":{"ha":871,"x_min":33,"x_max":819,"o":"m 804 710 q 732 194 732 224 q 743 165 732 175 q 769 154 754 154 q 819 167 790 154 l 799 18 q 654 -14 747 -14 q 522 15 565 -14 q 465 99 478 43 q 376 22 433 58 q 233 -14 319 -14 q 85 36 138 -14 q 33 165 33 86 q 56 365 33 203 q 107 710 78 526 l 382 710 l 350 489 q 328 346 338 415 q 318 251 319 276 q 335 201 318 221 q 382 182 351 182 q 439 206 417 182 q 467 265 461 229 l 529 710 l 804 710 z "},"ú":{"ha":871,"x_min":33,"x_max":819,"o":"m 736 1000 l 738 996 l 535 799 l 371 799 l 526 1000 l 736 1000 m 804 710 q 732 194 732 224 q 743 165 732 175 q 769 154 754 154 q 819 167 790 154 l 799 18 q 654 -14 747 -14 q 522 15 565 -14 q 465 99 478 43 q 376 22 433 58 q 233 -14 319 -14 q 85 36 138 -14 q 33 165 33 86 q 56 365 33 203 q 107 710 78 526 l 382 710 l 350 489 q 328 346 338 415 q 318 251 319 276 q 335 201 318 221 q 382 182 351 182 q 439 206 417 182 q 467 265 461 229 l 529 710 l 804 710 z "},"û":{"ha":871,"x_min":33,"x_max":819,"o":"m 588 1000 l 751 799 l 571 799 l 483 906 l 365 799 l 188 799 l 410 1000 l 588 1000 m 804 710 q 732 194 732 224 q 743 165 732 175 q 769 154 754 154 q 819 167 790 154 l 799 18 q 654 -14 747 -14 q 522 15 565 -14 q 465 99 478 43 q 376 22 433 58 q 233 -14 319 -14 q 85 36 138 -14 q 33 165 33 86 q 56 365 33 203 q 107 710 78 526 l 382 710 l 350 489 q 328 346 338 415 q 318 251 319 276 q 335 201 318 221 q 382 182 351 182 q 439 206 417 182 q 467 265 461 229 l 529 710 l 804 710 z "},"ü":{"ha":871,"x_min":33,"x_max":819,"o":"m 447 1000 l 418 796 l 207 796 l 236 1000 l 447 1000 m 753 1000 l 724 796 l 513 796 l 542 1000 l 753 1000 m 804 710 q 732 194 732 224 q 743 165 732 175 q 769 154 754 154 q 819 167 790 154 l 799 18 q 654 -14 747 -14 q 522 15 565 -14 q 465 99 478 43 q 376 22 433 58 q 233 -14 319 -14 q 85 36 138 -14 q 33 165 33 86 q 56 365 33 203 q 107 710 78 526 l 382 710 l 350 489 q 328 346 338 415 q 318 251 319 276 q 335 201 318 221 q 382 182 351 182 q 439 206 417 182 q 467 265 461 229 l 529 710 l 804 710 z "},"ù":{"ha":871,"x_min":33,"x_max":819,"o":"m 449 1000 l 546 799 l 382 799 l 235 996 l 239 1000 l 449 1000 m 804 710 q 732 194 732 224 q 743 165 732 175 q 769 154 754 154 q 819 167 790 154 l 799 18 q 654 -14 747 -14 q 522 15 565 -14 q 465 99 478 43 q 376 22 433 58 q 233 -14 319 -14 q 85 36 138 -14 q 33 165 33 86 q 56 365 33 203 q 107 710 78 526 l 382 710 l 350 489 q 328 346 338 415 q 318 251 319 276 q 335 201 318 221 q 382 182 351 182 q 439 206 417 182 q 467 265 461 229 l 529 710 l 804 710 z "},"ű":{"ha":871,"x_min":33,"x_max":893,"o":"m 804 710 q 732 194 732 224 q 743 165 732 175 q 769 154 754 154 q 819 167 790 154 l 799 18 q 654 -14 747 -14 q 522 15 565 -14 q 465 99 478 43 q 376 22 433 58 q 233 -14 319 -14 q 85 36 138 -14 q 33 165 33 86 q 56 365 33 203 q 107 710 78 526 l 382 710 l 350 489 q 328 346 338 415 q 318 251 319 276 q 335 201 318 221 q 382 182 351 182 q 439 206 417 182 q 467 265 461 229 l 529 710 l 804 710 m 576 1000 l 578 996 l 375 799 l 211 799 l 367 1000 l 576 1000 m 892 1000 l 893 996 l 690 799 l 526 799 l 682 1000 l 892 1000 z "},"ū":{"ha":871,"x_min":33,"x_max":819,"o":"m 804 710 q 732 194 732 224 q 743 165 732 175 q 769 154 754 154 q 819 167 790 154 l 799 18 q 654 -14 747 -14 q 522 15 565 -14 q 465 99 478 43 q 376 22 433 58 q 233 -14 319 -14 q 85 36 138 -14 q 33 165 33 86 q 56 365 33 203 q 107 710 78 526 l 382 710 l 350 489 q 328 346 338 415 q 318 251 319 276 q 335 201 318 221 q 382 182 351 182 q 439 206 417 182 q 467 265 461 229 l 529 710 l 804 710 m 690 1022 l 690 919 l 249 919 l 249 1022 l 690 1022 z "},"ų":{"ha":871,"x_min":33,"x_max":867,"o":"m 867 -165 q 717 -199 794 -199 q 631 -178 665 -199 q 596 -115 596 -158 q 614 -60 596 -83 q 664 -14 632 -36 l 654 -14 q 522 15 565 -14 q 465 99 478 43 q 376 22 433 58 q 233 -14 319 -14 q 85 36 138 -14 q 33 165 33 86 q 56 365 33 203 q 107 710 78 526 l 382 710 l 350 489 q 328 346 338 415 q 318 251 319 276 q 335 201 318 221 q 382 182 351 182 q 439 206 417 182 q 467 265 461 229 l 529 710 l 804 710 q 732 194 732 224 q 743 165 732 175 q 769 154 754 154 q 819 167 790 154 l 799 18 q 758 0 783 8 l 783 0 q 726 -40 747 -21 q 706 -86 706 -58 q 722 -115 706 -106 q 761 -125 739 -125 q 857 -106 801 -125 l 867 -165 z "},"ů":{"ha":871,"x_min":33,"x_max":819,"o":"m 804 710 q 732 194 732 224 q 743 165 732 175 q 769 154 754 154 q 819 167 790 154 l 799 18 q 654 -14 747 -14 q 522 15 565 -14 q 465 99 478 43 q 376 22 433 58 q 233 -14 319 -14 q 85 36 138 -14 q 33 165 33 86 q 56 365 33 203 q 107 710 78 526 l 382 710 l 350 489 q 328 346 338 415 q 318 251 319 276 q 335 201 318 221 q 382 182 351 182 q 439 206 417 182 q 467 265 461 229 l 529 710 l 804 710 m 476 1036 q 563 1002 529 1036 q 597 917 597 968 q 550 803 597 850 q 436 757 503 757 q 349 791 383 757 q 314 878 314 825 q 363 989 314 942 q 476 1036 411 1036 m 463 944 q 423 928 439 944 q 407 889 407 913 q 419 859 407 871 q 450 847 431 847 q 489 861 472 847 q 506 901 506 875 q 494 933 506 921 q 463 944 482 944 z "},"v":{"ha":775,"x_min":38,"x_max":817,"o":"m 817 710 l 486 0 l 168 0 l 38 710 l 331 710 l 378 304 l 388 304 l 549 710 l 817 710 z "},"w":{"ha":1188,"x_min":46,"x_max":1224,"o":"m 1224 710 l 922 0 l 611 0 l 585 296 l 574 296 l 465 0 l 149 0 l 46 710 l 332 710 l 361 351 l 371 351 l 506 710 l 783 710 l 817 351 l 828 351 l 957 710 l 1224 710 z "},"x":{"ha":810,"x_min":-67,"x_max":844,"o":"m 844 710 l 581 368 l 761 0 l 446 0 l 368 199 l 363 199 l 228 0 l -67 0 l 221 375 l 56 710 l 371 710 l 435 546 l 440 546 l 549 710 l 844 710 z "},"y":{"ha":767,"x_min":-47,"x_max":814,"o":"m 482 50 q 308 -175 411 -90 q 85 -260 206 -260 q -47 -239 -11 -260 l -24 -60 q 20 -73 -10 -67 q 78 -79 50 -79 q 200 21 168 -79 l 36 710 l 329 710 l 386 342 l 397 342 l 543 710 l 814 710 l 482 50 z "},"ý":{"ha":767,"x_min":-47,"x_max":814,"o":"m 721 1000 l 722 996 l 519 799 l 356 799 l 511 1000 l 721 1000 m 482 50 q 308 -175 411 -90 q 85 -260 206 -260 q -47 -239 -11 -260 l -24 -60 q 20 -73 -10 -67 q 78 -79 50 -79 q 200 21 168 -79 l 36 710 l 329 710 l 386 342 l 397 342 l 543 710 l 814 710 l 482 50 z "},"ÿ":{"ha":767,"x_min":-47,"x_max":814,"o":"m 417 1000 l 388 796 l 176 796 l 206 1000 l 417 1000 m 722 1000 l 693 796 l 482 796 l 511 1000 l 722 1000 m 482 50 q 308 -175 411 -90 q 85 -260 206 -260 q -47 -239 -11 -260 l -24 -60 q 20 -73 -10 -67 q 78 -79 50 -79 q 200 21 168 -79 l 36 710 l 329 710 l 386 342 l 397 342 l 543 710 l 814 710 l 482 50 z "},"z":{"ha":690,"x_min":-25,"x_max":689,"o":"m 689 710 l 678 626 l 351 172 l 625 172 l 601 0 l -25 0 l -14 88 l 310 538 l 64 538 l 88 710 l 689 710 z "},"ź":{"ha":690,"x_min":-25,"x_max":689,"o":"m 689 710 l 678 626 l 351 172 l 625 172 l 601 0 l -25 0 l -14 88 l 310 538 l 64 538 l 88 710 l 689 710 m 611 1000 l 613 996 l 410 799 l 246 799 l 401 1000 l 611 1000 z "},"ž":{"ha":690,"x_min":-25,"x_max":710,"o":"m 710 1000 l 488 799 l 310 799 l 146 1000 l 326 1000 l 414 893 l 532 1000 l 710 1000 m 689 710 l 678 626 l 351 172 l 625 172 l 601 0 l -25 0 l -14 88 l 310 538 l 64 538 l 88 710 l 689 710 z "},"ż":{"ha":690,"x_min":-25,"x_max":689,"o":"m 689 710 l 678 626 l 351 172 l 625 172 l 601 0 l -25 0 l -14 88 l 310 538 l 64 538 l 88 710 l 689 710 m 494 1051 l 465 847 l 254 847 l 283 1051 l 494 1051 z "},"ﬁ":{"ha":975,"x_min":-131,"x_max":990,"o":"m 464 1011 q 561 1003 507 1011 q 644 981 615 996 l 624 828 q 539 842 576 842 q 469 815 486 842 q 448 755 453 789 q 442 710 443 721 l 608 710 l 581 513 l 414 513 l 338 -36 q 244 -203 322 -146 q 51 -260 167 -260 q -47 -252 7 -260 q -131 -229 -100 -244 l -108 -74 q -67 -85 -92 -81 q -25 -90 -43 -90 q 39 -65 18 -90 q 68 6 60 -40 l 139 513 l 50 513 l 78 710 l 167 710 l 179 801 q 270 961 194 911 q 464 1011 346 1011 m 990 1000 l 963 801 l 689 801 l 717 1000 l 990 1000 m 950 710 l 850 0 l 578 0 l 676 710 l 950 710 z "},"ﬂ":{"ha":978,"x_min":-131,"x_max":992,"o":"m 464 1011 q 561 1003 507 1011 q 644 981 615 996 l 624 828 q 539 842 576 842 q 469 815 486 842 q 448 755 453 789 q 442 710 443 721 l 608 710 l 581 513 l 414 513 l 338 -36 q 244 -203 322 -146 q 51 -260 167 -260 q -47 -252 7 -260 q -131 -229 -100 -244 l -108 -74 q -67 -85 -92 -81 q -25 -90 -43 -90 q 39 -65 18 -90 q 68 6 60 -40 l 139 513 l 50 513 l 78 710 l 167 710 l 179 801 q 270 961 194 911 q 464 1011 346 1011 m 992 1000 l 851 0 l 578 0 l 717 1000 l 992 1000 z "},"ª":{"ha":581,"x_min":88,"x_max":568,"o":"m 289 967 q 352 951 322 967 q 401 907 382 936 l 407 907 l 435 958 l 560 958 l 529 754 q 515 646 515 664 q 538 622 515 622 q 568 633 549 622 l 556 542 q 469 522 514 522 q 395 535 424 522 q 356 588 367 549 q 299 540 333 558 q 231 522 265 522 q 122 569 157 522 q 88 692 88 615 q 109 822 88 758 q 176 926 131 885 q 289 967 221 967 m 329 863 q 289 845 306 863 q 269 803 272 828 l 264 769 q 251 678 251 686 l 251 672 q 264 638 251 651 q 296 624 276 624 q 338 640 322 624 q 356 682 353 656 l 364 742 l 369 778 q 374 814 374 803 q 362 850 374 838 q 329 863 350 863 z "},"º":{"ha":549,"x_min":83,"x_max":558,"o":"m 353 967 q 505 918 451 967 q 558 788 558 869 q 526 653 558 713 q 435 559 493 593 q 303 525 378 525 l 290 525 q 138 574 192 525 q 83 704 83 622 q 112 831 83 771 q 198 928 140 890 q 339 967 256 967 l 353 967 m 338 867 q 294 850 313 867 q 272 808 275 833 l 263 744 q 254 675 254 697 q 268 640 254 654 q 304 625 282 625 q 349 642 331 625 q 369 683 367 658 l 378 744 l 383 783 l 388 815 q 374 851 388 836 q 338 867 360 867 z "},"Δ":{"ha":882,"x_min":-19,"x_max":810,"o":"m 617 953 l 810 129 l 792 0 l -19 0 l -1 129 l 424 953 l 617 953 m 490 729 l 203 151 l 614 151 l 490 729 z "},"Ω":{"ha":1063,"x_min":-6,"x_max":1010,"o":"m 647 964 q 834 917 751 964 q 963 788 917 869 q 1010 606 1010 706 q 1006 547 1010 576 l 997 486 q 810 197 976 335 l 969 225 l 985 225 l 954 0 l 531 0 l 547 118 q 617 169 588 135 q 651 246 646 203 l 678 428 q 696 558 685 483 q 701 601 699 582 q 704 629 704 619 q 670 715 704 681 q 583 750 636 750 l 576 750 q 472 709 518 750 q 418 611 426 668 l 367 246 q 365 236 365 242 l 365 226 q 383 161 365 190 q 433 118 401 132 l 417 0 l -6 0 l 25 225 l 40 225 l 192 197 q 83 442 83 313 q 86 486 83 456 l 94 547 q 180 756 110 661 q 353 908 250 851 q 569 964 457 964 l 647 964 z "},"μ":{"ha":903,"x_min":-11,"x_max":833,"o":"m 818 710 q 746 194 746 224 q 757 165 746 175 q 783 154 768 154 q 833 167 804 154 l 813 18 q 668 -14 761 -14 q 535 15 579 -14 q 479 99 492 43 q 404 30 453 64 q 285 -11 356 -4 l 285 -25 q 279 -115 285 -78 l 264 -224 l -11 -224 l 121 710 l 396 710 l 364 489 q 342 346 351 415 q 332 251 333 276 q 349 201 332 221 q 396 182 365 182 q 453 206 431 182 q 481 265 475 229 l 543 710 l 818 710 z "},"π":{"ha":997,"x_min":43,"x_max":1028,"o":"m 985 536 l 876 536 l 833 229 q 818 51 818 115 q 821 0 818 31 l 561 0 q 550 68 550 13 q 563 213 550 143 l 608 536 l 472 536 q 399 239 447 400 q 304 0 351 78 l 43 0 q 144 270 94 114 q 210 536 193 426 q 47 522 108 536 l 47 660 q 346 710 115 710 l 1028 710 l 985 536 z "},"¹":{"ha":465,"x_min":79,"x_max":464,"o":"m 356 700 l 464 700 l 447 586 l 79 586 l 96 700 l 210 700 l 243 939 l 129 939 l 142 1025 q 250 1051 189 1028 q 363 1106 311 1075 l 413 1106 l 356 700 z "},"²":{"ha":513,"x_min":78,"x_max":529,"o":"m 367 1117 q 485 1078 442 1117 q 529 975 529 1039 q 504 881 529 922 q 444 812 479 840 q 347 744 408 783 l 297 711 l 493 711 l 476 586 l 78 586 l 81 613 q 103 683 85 654 q 158 742 121 713 l 324 869 q 375 957 375 908 q 363 988 375 976 q 332 1000 351 1000 l 322 1000 q 282 985 300 1000 q 261 949 264 971 l 258 928 l 126 928 q 148 1010 126 967 q 218 1085 169 1054 q 343 1117 267 1117 l 367 1117 z "},"³":{"ha":492,"x_min":72,"x_max":515,"o":"m 354 1113 q 472 1078 428 1113 q 515 989 515 1043 q 490 909 515 946 q 426 856 464 872 q 494 749 494 829 q 430 618 494 663 q 278 574 365 574 l 247 574 q 117 610 163 574 q 72 703 72 646 q 76 738 72 715 l 208 738 q 219 699 208 713 q 260 685 229 685 l 279 685 q 331 705 313 685 q 349 758 349 725 q 303 803 349 803 l 226 803 l 240 894 l 306 894 q 347 910 329 894 q 364 958 364 925 q 352 989 364 976 q 321 1001 340 1001 l 307 1001 q 268 988 285 1001 q 249 954 251 974 l 124 954 q 184 1069 124 1025 q 332 1113 244 1113 l 354 1113 z "},"⁄":{"ha":669,"x_min":-71,"x_max":765,"o":"m 765 953 l 53 0 l -71 0 l 646 953 l 765 953 z "},"½":{"ha":1063,"x_min":50,"x_max":1019,"o":"m 326 547 l 435 547 l 418 433 l 50 433 l 67 547 l 181 547 l 214 786 l 100 786 l 113 872 q 221 899 160 875 q 333 953 282 922 l 383 953 l 326 547 m 976 953 l 263 0 l 139 0 l 857 953 l 976 953 m 857 531 q 976 492 932 531 q 1019 389 1019 453 q 994 295 1019 336 q 934 226 969 254 q 838 158 899 197 l 788 125 l 983 125 l 967 0 l 568 0 l 571 26 q 593 97 575 68 q 649 156 611 126 l 814 283 q 865 371 865 322 q 853 402 865 390 q 822 414 842 414 l 813 414 q 772 399 790 414 q 751 363 754 385 l 749 342 l 617 342 q 638 424 617 381 q 708 499 660 468 q 833 531 757 531 l 857 531 z "},"¼":{"ha":1063,"x_min":54,"x_max":1000,"o":"m 981 953 l 267 0 l 143 0 l 861 953 l 981 953 m 331 546 l 439 546 l 422 432 l 54 432 l 71 546 l 185 546 l 218 785 l 104 785 l 115 871 q 225 897 164 874 q 338 951 286 921 l 388 951 l 331 546 m 867 521 q 788 372 851 465 q 674 224 725 278 l 786 224 l 797 300 q 854 384 821 328 q 899 471 888 440 l 961 471 l 926 224 l 1000 224 l 985 113 l 911 113 l 894 0 l 754 0 l 771 113 l 561 113 l 576 225 q 664 371 613 275 q 735 521 715 467 l 867 521 z "},"¾":{"ha":1051,"x_min":60,"x_max":989,"o":"m 342 963 q 459 928 415 963 q 503 839 503 893 q 477 759 503 796 q 414 706 451 722 q 482 599 482 679 q 417 468 482 513 q 265 424 353 424 l 235 424 q 105 460 150 424 q 60 553 60 496 q 64 588 60 565 l 196 588 q 206 549 196 563 q 247 535 217 535 l 267 535 q 318 555 300 535 q 336 608 336 575 q 290 653 336 653 l 214 653 l 228 744 l 293 744 q 334 760 317 744 q 351 808 351 775 q 340 839 351 826 q 308 851 328 851 l 294 851 q 256 838 272 851 q 236 804 239 824 l 111 804 q 172 919 111 875 q 319 963 232 963 l 342 963 m 969 953 l 257 0 l 133 0 l 850 953 l 969 953 m 857 521 q 778 370 842 465 q 663 224 714 275 l 775 224 l 786 300 q 843 384 810 328 q 888 471 876 440 l 950 471 l 915 224 l 989 224 l 974 113 l 900 113 l 885 0 l 744 0 l 760 113 l 550 113 l 567 225 q 656 376 606 283 q 725 521 707 469 l 857 521 z "},"*":{"ha":703,"x_min":74,"x_max":704,"o":"m 510 953 l 460 740 l 676 824 l 704 671 l 489 622 l 606 465 l 453 368 l 368 550 l 235 368 l 110 465 l 271 622 l 74 671 l 149 824 l 343 740 l 343 953 l 510 953 z "},"\\":{"ha":900,"x_min":94,"x_max":789,"o":"m 276 953 l 789 -237 l 606 -237 l 94 953 l 276 953 z "},"·":{"ha":399,"x_min":49,"x_max":349,"o":"m 349 528 l 314 274 l 49 274 l 83 528 l 349 528 z "},"•":{"ha":833,"x_min":186,"x_max":668,"o":"m 460 714 q 567 687 519 714 q 642 613 615 660 q 668 510 668 567 q 626 367 668 429 q 521 271 585 304 q 392 238 457 238 q 244 295 303 238 q 186 440 186 353 q 224 576 186 514 q 326 676 263 639 q 460 714 389 714 z "},":":{"ha":428,"x_min":25,"x_max":389,"o":"m 389 710 l 354 456 l 89 456 l 124 710 l 389 710 m 325 254 l 290 0 l 25 0 l 60 254 l 325 254 z "},",":{"ha":397,"x_min":10,"x_max":311,"o":"m 311 254 l 279 31 l 174 -229 l 43 -229 l 126 0 l 10 0 l 46 254 l 311 254 z "},"…":{"ha":1324,"x_min":11,"x_max":1236,"o":"m 311 254 l 276 0 l 11 0 l 46 254 l 311 254 m 774 254 l 739 0 l 474 0 l 508 254 l 774 254 m 1236 254 l 1201 0 l 936 0 l 971 254 l 1236 254 z "},"!":{"ha":438,"x_min":35,"x_max":467,"o":"m 467 953 l 299 321 l 122 321 l 122 953 l 467 953 m 336 254 l 300 0 l 35 0 l 71 254 l 336 254 z "},"¡":{"ha":421,"x_min":-51,"x_max":381,"o":"m 381 710 l 344 456 l 79 456 l 115 710 l 381 710 m 292 386 l 292 -246 l -51 -246 l 115 386 l 292 386 z "},"#":{"ha":918,"x_min":13,"x_max":918,"o":"m 892 967 l 792 697 l 918 697 l 897 547 l 744 547 l 685 379 l 829 379 l 808 231 l 626 231 l 544 0 l 383 0 l 465 231 l 310 231 l 229 0 l 67 0 l 147 231 l 13 231 l 33 379 l 203 379 l 265 547 l 118 547 l 139 697 l 315 697 l 413 967 l 578 967 l 479 697 l 632 697 l 729 967 l 892 967 m 583 546 l 425 546 l 364 378 l 521 378 l 583 546 z "},".":{"ha":399,"x_min":11,"x_max":311,"o":"m 311 254 l 276 0 l 11 0 l 46 254 l 311 254 z "},"?":{"ha":810,"x_min":68,"x_max":808,"o":"m 514 967 q 662 934 594 967 q 769 842 729 901 q 808 707 808 783 q 778 576 808 632 q 706 485 747 519 q 604 413 664 450 q 542 368 561 385 q 521 333 522 351 l 517 303 l 279 303 l 292 385 q 322 449 297 419 q 397 522 347 478 q 483 608 454 571 q 514 692 513 644 q 492 751 514 726 q 435 775 471 775 q 368 753 392 775 q 336 699 344 731 q 324 621 328 668 l 68 621 q 72 674 68 647 q 141 829 86 763 q 280 931 196 896 q 461 967 364 967 l 514 967 m 531 254 l 496 0 l 231 0 l 265 254 l 531 254 z "},"¿":{"ha":803,"x_min":-17,"x_max":724,"o":"m 565 710 l 531 456 l 265 456 l 300 710 l 565 710 m 500 324 q 469 259 494 288 q 393 186 444 231 q 307 101 336 138 q 278 17 278 64 q 299 -42 278 -18 q 357 -67 321 -67 q 444 -22 419 -67 q 468 88 468 24 l 724 88 q 719 35 724 63 q 652 -121 706 -54 q 515 -223 599 -187 q 331 -258 432 -258 l 278 -258 q 130 -226 197 -258 q 23 -133 63 -193 q -17 3 -17 -74 q 13 133 -17 78 q 83 222 43 189 q 185 294 124 256 q 248 339 228 322 q 271 375 268 356 l 275 406 l 513 406 l 500 324 z "},"\"":{"ha":601,"x_min":99,"x_max":625,"o":"m 343 953 l 314 749 l 221 550 l 136 550 l 99 749 l 128 953 l 343 953 m 625 953 l 596 749 l 501 550 l 418 550 l 381 749 l 410 953 l 625 953 z "},"'":{"ha":319,"x_min":99,"x_max":343,"o":"m 343 953 l 314 749 l 221 550 l 136 550 l 99 749 l 128 953 l 343 953 z "},";":{"ha":426,"x_min":24,"x_max":389,"o":"m 389 710 l 353 456 l 88 456 l 124 710 l 389 710 m 325 254 l 293 31 l 188 -229 l 57 -229 l 140 0 l 24 0 l 60 254 l 325 254 z "},"/":{"ha":751,"x_min":-61,"x_max":801,"o":"m 801 953 l 122 -237 l -61 -237 l 619 953 l 801 953 z "},"_":{"ha":919,"x_min":31,"x_max":736,"o":"m 736 -90 l 724 -176 l 31 -176 l 42 -90 l 736 -90 z "},"{":{"ha":475,"x_min":15,"x_max":521,"o":"m 507 858 q 394 801 406 858 l 340 515 q 179 372 314 372 l 178 360 q 299 243 299 360 q 283 63 299 218 q 272 -75 272 -60 q 369 -126 272 -126 l 356 -221 l 243 -221 q 119 -187 171 -221 q 68 -87 68 -153 q 78 0 68 -68 q 92 92 89 68 q 113 247 113 222 q 85 295 113 279 q 15 311 57 311 l 31 421 q 107 441 71 421 q 149 500 143 461 l 190 797 q 265 913 201 872 q 408 953 329 953 l 521 953 l 507 858 z "},"}":{"ha":474,"x_min":-57,"x_max":447,"o":"m 219 953 q 343 919 292 953 q 394 819 394 885 q 392 786 394 814 q 383 725 389 758 l 361 581 q 353 522 356 549 q 350 489 351 494 q 378 438 350 456 q 447 421 407 421 l 431 311 q 353 292 388 311 q 314 235 318 274 l 272 -65 q 197 -181 261 -140 q 54 -221 133 -221 l -57 -221 l -43 -126 q 69 -68 58 -126 l 122 217 q 283 360 149 360 l 285 372 q 164 488 164 372 q 181 675 164 519 q 192 806 192 800 q 93 858 192 858 l 107 953 l 219 953 z "},"[":{"ha":442,"x_min":-10,"x_max":485,"o":"m 485 953 l 468 838 l 346 838 l 214 -108 l 336 -108 l 319 -224 l -10 -224 l 156 953 l 485 953 z "},"]":{"ha":440,"x_min":-56,"x_max":439,"o":"m 439 953 l 274 -224 l -56 -224 l -39 -108 l 83 -108 l 215 838 l 93 838 l 110 953 l 439 953 z "},"(":{"ha":432,"x_min":26,"x_max":489,"o":"m 489 953 q 308 595 372 785 q 243 219 243 406 q 264 -15 243 100 q 324 -219 285 -131 l 174 -219 q 64 -5 101 -122 q 26 242 26 113 q 109 621 26 433 q 339 953 192 808 l 489 953 z "},")":{"ha":433,"x_min":-67,"x_max":396,"o":"m 249 953 q 396 488 396 756 q 313 111 396 296 q 83 -219 231 -74 l -67 -219 q 114 135 49 -57 q 179 511 179 326 q 158 745 179 628 q 99 953 138 863 l 249 953 z "},"—":{"ha":1410,"x_min":53,"x_max":1347,"o":"m 1347 492 l 1315 272 l 53 272 l 83 492 l 1347 492 z "},"–":{"ha":829,"x_min":49,"x_max":774,"o":"m 774 492 l 742 272 l 49 272 l 79 492 l 774 492 z "},"-":{"ha":488,"x_min":49,"x_max":432,"o":"m 432 492 l 400 272 l 49 272 l 79 492 l 432 492 z "},"­":{"ha":488,"x_min":49,"x_max":432,"o":"m 432 492 l 400 272 l 49 272 l 79 492 l 432 492 z "},"«":{"ha":614,"x_min":51,"x_max":606,"o":"m 354 710 l 203 468 l 286 226 l 183 226 l 51 468 l 251 710 l 354 710 m 606 710 l 454 468 l 538 226 l 435 226 l 303 468 l 503 710 l 606 710 z "},"»":{"ha":615,"x_min":26,"x_max":582,"o":"m 197 710 l 331 468 l 129 226 l 26 226 l 179 468 l 94 710 l 197 710 m 449 710 l 582 468 l 381 226 l 278 226 l 431 468 l 346 710 l 449 710 z "},"‹":{"ha":363,"x_min":51,"x_max":354,"o":"m 354 710 l 203 468 l 286 226 l 183 226 l 51 468 l 251 710 l 354 710 z "},"›":{"ha":364,"x_min":26,"x_max":331,"o":"m 197 710 l 331 468 l 129 226 l 26 226 l 179 468 l 94 710 l 197 710 z "},"„":{"ha":742,"x_min":10,"x_max":656,"o":"m 311 254 l 279 31 l 174 -229 l 43 -229 l 126 0 l 10 0 l 46 254 l 311 254 m 656 254 l 624 31 l 518 -229 l 388 -229 l 471 0 l 354 0 l 390 254 l 656 254 z "},"“":{"ha":714,"x_min":97,"x_max":739,"o":"m 394 953 l 358 699 l 242 699 l 261 469 l 131 469 l 97 729 l 129 953 l 394 953 m 739 953 l 703 699 l 586 699 l 606 469 l 475 469 l 442 729 l 474 953 l 739 953 z "},"”":{"ha":713,"x_min":90,"x_max":736,"o":"m 392 953 l 360 729 l 254 469 l 124 469 l 207 699 l 90 699 l 126 953 l 392 953 m 736 953 l 704 729 l 599 469 l 468 469 l 551 699 l 435 699 l 471 953 l 736 953 z "},"‘":{"ha":378,"x_min":67,"x_max":368,"o":"m 335 953 l 251 724 l 368 724 l 332 469 l 67 469 l 99 693 l 204 953 l 335 953 z "},"’":{"ha":368,"x_min":90,"x_max":392,"o":"m 392 953 l 360 729 l 254 469 l 124 469 l 207 699 l 90 699 l 126 953 l 392 953 z "},"‚":{"ha":397,"x_min":10,"x_max":311,"o":"m 311 254 l 279 31 l 174 -229 l 43 -229 l 126 0 l 10 0 l 46 254 l 311 254 z "}," ":{"ha":267,"x_min":0,"x_max":0,"o":""},"¢":{"ha":806,"x_min":49,"x_max":789,"o":"m 549 839 q 735 749 682 821 q 789 592 789 678 q 785 542 789 567 l 551 542 q 553 568 551 553 q 556 590 556 583 q 533 651 556 626 q 474 675 510 675 q 398 648 426 675 q 364 578 369 621 q 342 442 351 510 q 333 357 333 375 q 358 297 333 319 q 426 274 382 274 q 508 303 479 274 q 542 371 536 332 l 547 407 l 767 407 q 663 199 747 276 q 447 108 578 122 l 447 -14 l 265 -14 l 303 113 q 114 213 179 133 q 49 394 49 292 q 89 601 49 507 q 209 758 129 696 q 403 838 289 821 l 403 964 l 582 964 l 549 839 z "},"¤":{"ha":843,"x_min":31,"x_max":833,"o":"m 833 743 l 744 665 q 770 608 761 643 q 779 529 779 572 q 755 388 779 457 q 686 274 731 318 l 753 196 l 658 113 l 589 193 q 498 144 553 161 q 382 126 443 126 q 274 143 324 126 q 194 190 224 160 l 104 111 l 31 196 l 122 276 q 82 419 82 329 q 108 557 82 488 q 178 665 135 626 l 108 746 l 208 833 l 276 754 q 367 799 310 782 q 479 815 424 815 q 585 799 536 815 q 660 757 635 782 l 751 838 l 833 743 m 458 663 q 355 632 403 663 q 278 550 307 601 q 250 440 250 499 q 292 324 250 369 q 404 279 335 279 q 508 310 461 279 q 583 394 556 342 q 611 503 611 446 q 569 617 611 571 q 458 663 528 663 z "},"$":{"ha":844,"x_min":22,"x_max":810,"o":"m 546 936 q 737 869 664 928 q 810 710 810 811 q 806 651 810 689 l 565 651 l 565 660 l 567 671 q 544 722 567 701 q 474 742 521 742 q 390 725 418 742 q 361 681 361 708 q 395 635 361 651 q 501 599 429 618 q 643 550 588 574 q 740 478 699 526 q 781 350 781 429 q 418 29 781 29 l 422 -92 l 244 -92 l 282 31 q 94 104 167 43 q 22 269 22 165 q 22 297 22 272 q 31 342 22 322 l 274 342 l 271 331 l 268 310 q 374 235 268 235 q 500 296 500 235 q 469 339 500 324 q 369 374 439 354 q 228 424 285 399 q 129 501 171 449 q 88 640 88 554 q 127 780 88 717 q 240 884 167 843 q 408 932 313 925 l 404 1051 l 582 1051 l 546 936 z "},"€":{"ha":829,"x_min":26,"x_max":843,"o":"m 663 961 q 843 936 763 961 l 813 714 q 752 731 789 724 q 674 739 715 739 q 485 635 553 739 l 675 635 l 657 507 l 438 507 q 428 440 428 471 l 647 440 l 629 313 l 444 313 q 515 238 467 260 q 617 217 563 217 q 683 226 649 217 q 747 253 718 236 l 715 21 q 521 -14 611 -14 q 356 17 435 -14 q 221 121 278 47 q 151 313 164 194 l 26 313 l 44 440 l 153 440 l 163 507 l 54 507 l 72 635 l 197 635 q 390 884 260 807 q 663 961 519 961 z "},"ƒ":{"ha":581,"x_min":-131,"x_max":644,"o":"m 463 1011 q 558 1002 503 1011 q 644 981 613 993 l 624 828 q 583 838 611 833 q 539 842 554 842 q 479 826 503 842 q 449 761 456 811 l 442 710 l 608 710 l 581 513 l 414 513 l 335 -46 q 245 -205 319 -154 q 51 -256 171 -256 q -44 -247 11 -256 q -131 -225 -99 -237 l -110 -72 q -67 -82 -94 -78 q -25 -86 -40 -86 q 35 -72 11 -86 q 65 -6 58 -57 l 139 513 l 50 513 l 78 710 l 167 710 l 179 801 q 269 960 194 910 q 463 1011 343 1011 z "},"£":{"ha":928,"x_min":33,"x_max":933,"o":"m 614 972 q 777 939 704 972 q 892 847 850 906 q 933 718 933 789 q 932 692 933 703 q 929 672 931 681 l 925 647 l 649 647 l 651 664 q 654 696 654 683 q 635 747 654 726 q 585 767 615 767 q 522 744 544 767 q 493 686 499 722 l 476 574 l 610 574 l 582 369 l 447 369 l 396 204 l 788 204 l 758 0 l 33 0 l 61 204 l 150 204 l 174 369 l 44 369 l 71 574 l 201 574 l 218 685 q 282 831 231 765 q 419 935 333 897 q 614 972 506 972 z "},"¥":{"ha":989,"x_min":81,"x_max":1029,"o":"m 1029 953 l 814 635 l 931 635 l 911 506 l 726 506 l 682 440 l 903 440 l 885 311 l 624 311 l 579 0 l 289 0 l 333 311 l 81 311 l 99 440 l 311 440 l 283 506 l 107 506 l 126 635 l 233 635 l 107 953 l 435 953 l 533 640 l 540 640 l 731 953 l 1029 953 z "},"∙":{"ha":399,"x_min":49,"x_max":349,"o":"m 349 528 l 314 274 l 49 274 l 83 528 l 349 528 z "},"∕":{"ha":669,"x_min":-71,"x_max":765,"o":"m 765 953 l 53 0 l -71 0 l 646 953 l 765 953 z "},"+":{"ha":854,"x_min":53,"x_max":788,"o":"m 558 711 l 521 444 l 788 444 l 764 267 l 497 267 l 460 0 l 282 0 l 319 267 l 53 267 l 76 444 l 343 444 l 381 711 l 558 711 z "},"−":{"ha":854,"x_min":56,"x_max":796,"o":"m 796 504 l 767 296 l 56 296 l 85 504 l 796 504 z "},"×":{"ha":854,"x_min":78,"x_max":760,"o":"m 651 669 l 760 544 l 546 356 l 706 167 l 564 42 l 401 229 l 186 42 l 78 167 l 293 356 l 132 544 l 274 669 l 436 482 l 651 669 z "},"÷":{"ha":854,"x_min":53,"x_max":789,"o":"m 557 689 l 532 513 l 356 513 l 381 689 l 557 689 m 789 446 l 764 268 l 53 268 l 78 446 l 789 446 m 489 200 l 464 24 l 288 24 l 313 200 l 489 200 z "},"=":{"ha":854,"x_min":31,"x_max":810,"o":"m 810 596 l 785 418 l 74 418 l 99 596 l 810 596 m 767 290 l 742 113 l 31 113 l 56 290 l 767 290 z "},"≠":{"ha":854,"x_min":31,"x_max":810,"o":"m 788 710 l 694 596 l 810 596 l 785 418 l 550 418 l 444 290 l 767 290 l 742 113 l 300 113 l 208 0 l 54 0 l 146 113 l 31 113 l 56 290 l 293 290 l 399 418 l 74 418 l 99 596 l 544 596 l 638 710 l 788 710 z "},">":{"ha":854,"x_min":26,"x_max":799,"o":"m 131 724 l 799 450 l 772 257 l 26 -15 l 54 176 l 561 353 l 103 531 l 131 724 z "},"<":{"ha":854,"x_min":42,"x_max":814,"o":"m 814 724 l 786 531 l 278 353 l 738 176 l 710 -15 l 42 257 l 68 450 l 814 724 z "},"≥":{"ha":854,"x_min":17,"x_max":803,"o":"m 118 722 l 803 560 l 775 367 l 46 206 l 72 397 l 565 463 l 92 529 l 118 722 m 751 178 l 726 0 l 17 0 l 42 178 l 751 178 z "},"≤":{"ha":854,"x_min":14,"x_max":825,"o":"m 825 722 l 799 529 l 306 463 l 779 397 l 753 206 l 68 367 l 96 560 l 825 722 m 749 178 l 724 0 l 14 0 l 39 178 l 749 178 z "},"±":{"ha":854,"x_min":15,"x_max":804,"o":"m 558 711 l 538 556 l 804 556 l 779 378 l 513 378 l 490 222 l 313 222 l 335 378 l 68 378 l 93 556 l 360 556 l 381 711 l 558 711 m 751 178 l 726 0 l 15 0 l 40 178 l 751 178 z "},"≈":{"ha":854,"x_min":-12,"x_max":856,"o":"m 832 494 q 725 419 789 451 q 590 386 661 386 q 515 398 550 386 q 433 432 479 410 q 347 467 381 456 q 272 478 313 478 q 139 446 200 478 q 31 369 78 414 l 56 544 q 164 621 103 589 q 297 653 225 653 q 369 642 336 653 q 451 608 401 631 q 537 573 501 585 q 614 561 572 561 q 749 594 685 561 q 856 669 813 626 l 832 494 m 788 188 q 681 112 744 144 q 546 79 617 79 q 474 90 507 79 q 392 124 442 101 q 306 159 342 147 q 229 171 271 171 q 96 139 157 171 q -12 63 35 107 l 11 238 q 119 314 58 282 q 253 346 181 346 q 328 334 293 346 q 410 300 364 322 q 497 265 463 276 q 571 254 531 254 q 706 287 642 254 q 813 363 769 319 l 788 188 z "},"~":{"ha":901,"x_min":40,"x_max":867,"o":"m 842 389 q 735 313 799 346 q 600 281 671 281 q 524 292 560 281 q 443 326 489 304 q 356 361 390 350 q 282 372 322 372 q 149 340 210 372 q 40 264 88 308 l 65 439 q 174 515 113 483 q 307 547 235 547 q 383 535 347 547 q 464 501 418 524 q 551 467 517 478 q 625 456 585 456 q 760 488 696 456 q 867 564 824 521 l 842 389 z "},"¬":{"ha":863,"x_min":51,"x_max":828,"o":"m 828 672 l 765 219 l 557 219 l 590 464 l 51 464 l 81 672 l 828 672 z "},"∞":{"ha":1142,"x_min":49,"x_max":1090,"o":"m 871 661 q 1028 603 965 661 q 1090 447 1090 546 l 1090 425 q 1088 403 1090 417 q 1032 255 1076 318 q 924 159 988 192 q 794 126 860 126 q 664 158 726 126 q 550 283 601 190 q 411 166 478 206 q 263 126 344 126 q 154 153 203 126 q 77 231 106 181 q 49 347 49 281 q 91 509 49 438 q 203 621 133 581 q 354 661 274 661 q 493 625 436 661 q 596 511 550 589 q 651 563 606 519 q 753 634 696 607 q 871 661 810 661 m 332 525 q 267 507 299 525 q 213 455 235 489 q 192 374 192 421 q 222 296 192 328 q 297 264 251 264 q 394 297 347 264 q 492 385 442 331 l 486 396 q 442 469 460 444 q 399 509 425 493 q 332 525 372 525 m 843 525 q 754 493 796 525 q 658 404 713 461 q 650 396 651 400 q 731 290 694 317 q 814 264 767 264 q 885 290 856 264 q 929 351 914 315 q 944 415 944 386 q 918 495 944 465 q 843 525 892 525 z "},"∫":{"ha":442,"x_min":-79,"x_max":506,"o":"m 492 949 q 408 938 444 949 q 367 892 371 928 l 319 432 q 250 -192 276 18 q 175 -307 239 -267 q 32 -347 111 -347 l -79 -347 l -65 -253 q 58 -196 51 -253 l 106 264 l 125 443 q 175 888 157 754 q 250 1003 186 963 q 393 1043 314 1043 l 506 1043 l 492 949 z "},"Ω":{"ha":1063,"x_min":-6,"x_max":1010,"o":"m 647 964 q 834 917 751 964 q 963 788 917 869 q 1010 606 1010 706 q 1006 547 1010 576 l 997 486 q 810 197 976 335 l 969 225 l 985 225 l 954 0 l 531 0 l 547 118 q 617 169 588 135 q 651 246 646 203 l 678 428 q 696 558 685 483 q 701 601 699 582 q 704 629 704 619 q 670 715 704 681 q 583 750 636 750 l 576 750 q 472 709 518 750 q 418 611 426 668 l 367 246 q 365 236 365 242 l 365 226 q 383 161 365 190 q 433 118 401 132 l 417 0 l -6 0 l 25 225 l 40 225 l 192 197 q 83 442 83 313 q 86 486 83 456 l 94 547 q 180 756 110 661 q 353 908 250 851 q 569 964 457 964 l 647 964 z "},"∆":{"ha":882,"x_min":-19,"x_max":810,"o":"m 617 953 l 810 129 l 792 0 l -19 0 l -1 129 l 424 953 l 617 953 m 490 729 l 203 151 l 614 151 l 490 729 z "},"∏":{"ha":1247,"x_min":86,"x_max":1296,"o":"m 1296 1015 l 1261 765 l 1099 765 l 971 -140 l 672 -140 l 800 765 l 546 765 l 418 -140 l 121 -140 l 249 765 l 86 765 l 121 1015 l 1296 1015 z "},"∑":{"ha":988,"x_min":-37,"x_max":997,"o":"m 997 1015 l 963 772 l 522 772 l 522 767 l 747 468 l 396 118 l 394 111 l 906 111 l 871 -140 l -37 -140 l -14 24 l 399 433 l 115 824 l 142 1015 l 997 1015 z "},"√":{"ha":1022,"x_min":-11,"x_max":1144,"o":"m 544 -212 l 322 -212 l 143 376 l 18 328 l -11 456 l 340 593 l 447 167 l 463 100 l 475 44 l 497 100 q 525 172 521 163 l 938 1151 l 1144 1151 l 544 -212 z "},"µ":{"ha":903,"x_min":-11,"x_max":833,"o":"m 818 710 q 746 194 746 224 q 757 165 746 175 q 783 154 768 154 q 833 167 804 154 l 813 18 q 668 -14 761 -14 q 535 15 579 -14 q 479 99 492 43 q 404 30 453 64 q 285 -11 356 -4 l 285 -25 q 279 -115 285 -78 l 264 -224 l -11 -224 l 121 710 l 396 710 l 364 489 q 342 346 351 415 q 332 251 333 276 q 349 201 332 221 q 396 182 365 182 q 453 206 431 182 q 481 265 475 229 l 543 710 l 818 710 z "},"∂":{"ha":863,"x_min":21,"x_max":828,"o":"m 513 967 q 675 928 603 967 q 788 822 747 890 q 828 669 828 754 l 828 644 q 825 619 828 636 l 785 333 q 717 154 771 233 q 574 31 663 75 q 375 -14 486 -14 l 336 -14 q 173 21 244 -14 q 61 120 101 56 q 21 269 21 185 q 70 453 21 376 q 201 568 119 529 q 376 607 282 607 q 465 589 419 607 q 539 535 511 571 l 557 668 q 530 732 557 706 q 464 758 503 758 l 267 758 l 296 967 l 513 967 m 414 446 q 337 415 372 446 q 296 342 301 385 l 288 285 q 286 269 286 281 q 312 206 286 232 q 378 181 338 181 l 386 181 q 463 211 428 181 q 504 285 499 242 l 514 356 q 488 420 514 394 q 422 446 461 446 l 414 446 z "},"%":{"ha":993,"x_min":71,"x_max":943,"o":"m 929 953 l 215 0 l 83 0 l 800 953 l 929 953 m 318 951 q 425 910 383 951 q 467 806 467 868 l 467 793 q 465 781 467 785 l 446 639 q 382 517 433 565 q 250 468 331 468 l 219 468 q 113 510 154 468 q 71 614 71 551 l 71 626 q 72 639 71 635 l 92 781 q 155 903 101 854 q 288 951 208 951 l 318 951 m 289 853 q 250 838 268 853 q 229 799 232 822 q 203 614 203 621 q 216 581 203 594 q 249 568 229 568 q 288 583 271 568 q 307 622 304 599 l 319 708 q 328 771 325 740 q 332 807 331 801 q 320 840 332 826 q 289 853 308 853 m 794 482 q 901 440 860 482 q 943 336 943 399 l 943 324 q 942 311 943 315 l 922 169 q 858 47 910 96 q 726 -1 807 -1 l 696 -1 q 589 40 631 -1 q 547 144 547 82 l 547 157 q 549 169 547 165 l 568 311 q 631 433 578 385 q 764 482 685 482 l 794 482 m 765 383 q 726 368 744 383 q 706 329 708 353 q 679 144 679 151 q 692 112 679 125 q 725 99 706 99 q 764 114 747 99 q 783 153 781 129 l 796 239 q 804 301 801 271 q 808 338 807 332 q 797 370 808 357 q 765 383 785 383 z "},"‰":{"ha":1469,"x_min":74,"x_max":1421,"o":"m 321 953 q 428 911 386 953 q 469 807 469 869 l 469 794 q 468 782 469 786 l 449 640 q 385 518 436 567 q 253 469 333 469 l 222 469 q 115 511 157 469 q 74 615 74 553 l 74 628 q 75 640 74 636 l 94 782 q 158 904 104 856 q 290 953 211 953 l 321 953 m 932 953 l 218 0 l 86 0 l 803 953 l 932 953 m 292 854 q 253 839 271 854 q 232 800 235 824 q 206 615 206 622 q 219 583 206 596 q 251 569 232 569 q 290 585 274 569 q 310 624 307 600 l 322 710 q 331 772 328 742 q 335 808 333 803 q 323 841 335 828 q 292 854 311 854 m 797 482 q 904 440 863 482 q 946 336 946 399 l 946 324 q 944 311 946 315 l 925 169 q 861 47 913 96 q 729 -1 810 -1 l 699 -1 q 592 40 633 -1 q 550 144 550 82 l 550 157 q 551 169 550 165 l 571 311 q 634 433 581 385 q 767 482 688 482 l 797 482 m 1272 482 q 1379 440 1338 482 q 1421 336 1421 399 l 1421 324 q 1419 311 1421 315 l 1400 169 q 1336 47 1388 96 q 1204 -1 1285 -1 l 1174 -1 q 1067 40 1108 -1 q 1025 144 1025 82 l 1025 157 q 1026 169 1025 165 l 1046 311 q 1109 433 1056 385 q 1242 482 1163 482 l 1272 482 m 768 383 q 729 368 747 383 q 708 329 711 353 q 682 144 682 151 q 695 112 682 125 q 728 99 708 99 q 767 114 750 99 q 786 153 783 129 l 799 239 q 807 301 804 271 q 811 338 810 332 q 799 370 811 357 q 768 383 788 383 m 1243 383 q 1204 368 1222 383 q 1183 329 1186 353 q 1157 144 1157 151 q 1170 112 1157 125 q 1203 99 1183 99 q 1242 114 1225 99 q 1261 153 1258 129 l 1274 239 q 1282 301 1279 271 q 1286 338 1285 332 q 1274 370 1286 357 q 1243 383 1263 383 z "},"◊":{"ha":743,"x_min":46,"x_max":717,"o":"m 544 953 l 717 476 l 410 0 l 217 0 l 46 476 l 351 953 l 544 953 m 426 785 l 235 476 l 339 168 l 531 476 l 426 785 z "},"@":{"ha":1260,"x_min":32,"x_max":1233,"o":"m 731 968 q 1098 865 963 968 q 1233 549 1233 761 q 1174 244 1233 361 q 1031 79 1115 128 q 864 31 947 31 q 700 138 729 31 q 597 60 651 89 q 471 32 543 32 q 320 74 381 32 q 260 207 260 115 q 380 404 260 351 q 732 457 500 457 l 735 476 q 738 508 738 499 q 717 556 738 539 q 663 572 696 572 q 603 555 632 572 q 571 511 574 538 l 569 506 l 322 506 q 366 614 322 564 q 488 694 410 664 q 664 724 565 724 l 707 724 q 919 674 847 724 q 990 540 990 624 l 990 526 q 989 513 990 517 l 950 238 q 961 201 950 213 q 989 189 972 189 q 1057 233 1024 189 q 1111 358 1090 278 q 1132 536 1132 438 q 1022 798 1132 713 q 718 883 913 883 q 415 812 547 883 q 208 595 283 740 q 133 239 133 450 q 230 -37 133 54 q 528 -128 326 -128 q 653 -115 579 -128 q 764 -83 726 -101 l 751 -175 q 635 -201 707 -190 q 517 -212 564 -212 q 158 -103 283 -212 q 32 232 32 7 q 42 364 32 296 q 172 710 72 575 q 415 906 271 844 q 731 968 558 968 m 714 338 q 578 311 622 338 q 535 239 535 285 q 604 189 535 189 q 671 215 640 189 q 707 281 701 242 l 714 338 z "},"&":{"ha":985,"x_min":17,"x_max":996,"o":"m 488 967 q 557 963 524 967 l 528 754 q 489 761 507 761 q 403 735 433 761 q 374 660 374 708 q 392 608 374 631 q 451 585 411 585 l 619 585 l 717 750 l 907 750 l 885 585 l 996 585 l 968 388 l 857 388 l 803 0 l 360 0 q 112 53 207 0 q 17 231 17 107 q 69 406 17 338 q 222 497 122 474 q 136 561 165 517 q 107 665 107 606 q 158 831 107 763 q 296 933 210 899 q 488 967 382 967 m 424 388 q 324 353 350 388 q 297 276 297 318 q 327 213 297 233 q 403 192 357 192 l 554 192 l 582 388 l 424 388 z "},"¶":{"ha":808,"x_min":64,"x_max":838,"o":"m 822 843 l 731 843 l 581 -224 l 458 -224 l 608 843 l 503 843 l 353 -224 l 231 -224 l 311 351 q 183 388 240 353 q 95 480 126 422 q 64 607 64 538 q 112 778 64 699 q 240 905 160 857 q 408 953 319 953 l 838 953 l 822 843 z "},"§":{"ha":789,"x_min":8,"x_max":768,"o":"m 468 967 q 677 923 586 967 q 768 782 768 879 l 768 767 l 765 740 l 538 740 q 512 787 538 771 q 447 803 486 803 q 382 791 411 803 q 353 746 353 779 q 385 694 353 715 q 494 638 418 672 q 621 575 571 604 q 707 499 671 546 q 743 389 743 453 q 699 243 743 304 q 601 151 656 182 q 651 90 633 131 q 668 6 668 50 q 613 -145 668 -86 q 474 -231 557 -204 q 308 -257 392 -257 q 99 -213 189 -257 q 8 -71 8 -169 l 8 -57 l 11 -35 l 239 -35 q 266 -79 239 -65 q 336 -93 293 -93 q 422 -36 422 -93 q 388 17 422 -6 q 282 71 354 39 q 154 135 203 107 q 69 210 106 164 q 33 322 33 257 q 70 462 33 407 q 175 558 107 517 q 125 619 143 579 q 107 704 107 660 q 163 855 107 796 q 302 940 219 914 q 468 967 385 967 m 307 476 q 269 444 283 467 q 254 397 254 422 q 304 316 254 350 q 436 246 354 282 l 476 228 q 512 256 496 236 q 528 306 528 275 q 481 386 528 353 q 354 454 433 419 q 307 476 311 474 z "},"©":{"ha":1076,"x_min":57,"x_max":1040,"o":"m 549 967 q 795 901 682 967 q 974 723 908 835 q 1040 478 1040 611 q 974 231 1040 343 q 795 52 908 118 q 549 -14 682 -14 q 301 52 414 -14 q 123 231 189 118 q 57 478 57 343 q 123 724 57 611 q 301 901 189 836 q 549 967 414 967 m 549 878 q 344 828 431 878 q 210 688 257 779 q 163 478 163 597 q 210 266 163 357 q 344 126 257 175 q 549 76 431 76 q 751 126 664 76 q 887 266 839 175 q 935 478 935 357 q 887 688 935 597 q 751 828 839 779 q 549 878 664 878 m 561 771 q 735 708 668 771 q 803 528 803 646 l 639 528 l 639 557 q 615 617 639 594 q 551 640 590 640 q 492 616 517 640 q 468 557 468 592 l 468 396 q 492 337 468 361 q 551 313 517 313 l 564 313 q 624 335 600 313 q 647 396 647 357 l 647 424 l 803 424 q 737 248 803 314 q 568 182 671 182 l 544 182 q 410 212 471 182 q 315 298 350 242 q 281 432 281 354 l 281 521 q 316 651 281 594 q 410 740 351 708 q 539 771 469 771 l 561 771 z "},"®":{"ha":1076,"x_min":57,"x_max":1040,"o":"m 549 967 q 795 901 682 967 q 974 723 908 835 q 1040 478 1040 611 q 974 231 1040 343 q 795 52 908 118 q 549 -14 682 -14 q 301 52 414 -14 q 123 231 189 118 q 57 478 57 343 q 123 724 57 611 q 301 901 189 836 q 549 967 414 967 m 549 878 q 344 828 431 878 q 210 688 257 779 q 163 478 163 597 q 210 266 163 357 q 344 126 257 175 q 549 76 431 76 q 751 126 664 76 q 887 266 839 175 q 935 478 935 357 q 887 688 935 597 q 751 828 839 779 q 549 878 664 878 m 640 760 q 751 720 704 760 q 799 618 799 681 q 769 536 799 572 q 696 492 740 500 l 694 488 q 765 431 742 472 q 788 332 788 389 q 795 265 788 293 q 829 229 803 236 l 829 196 q 729 179 790 179 q 642 204 671 179 q 613 288 613 229 q 599 383 613 346 q 538 421 585 421 l 490 421 l 490 188 l 319 188 l 319 760 l 640 760 m 490 638 l 490 540 l 578 540 q 608 552 596 540 q 619 582 619 564 l 619 596 q 608 626 619 614 q 578 638 596 638 l 490 638 z "},"™":{"ha":1399,"x_min":122,"x_max":1392,"o":"m 626 953 l 608 819 l 450 819 l 392 400 l 222 400 l 281 819 l 122 819 l 140 953 l 626 953 m 1392 953 l 1315 400 l 1146 400 l 1201 782 l 1196 782 l 1047 400 l 853 400 l 810 782 l 804 819 l 754 400 l 599 400 l 675 953 l 953 953 l 986 631 l 992 631 l 1114 953 l 1392 953 z "},"°":{"ha":492,"x_min":85,"x_max":506,"o":"m 325 967 q 454 915 403 967 q 506 786 506 863 q 472 673 506 728 q 383 584 439 618 q 265 550 328 550 q 135 601 186 550 q 85 729 85 653 q 119 845 85 790 q 208 933 153 900 q 325 967 264 967 m 304 843 q 237 814 268 843 q 206 747 206 785 q 227 693 206 715 q 282 671 249 671 q 351 700 321 671 q 381 769 381 729 q 359 822 381 801 q 304 843 338 843 z "},"|":{"ha":404,"x_min":113,"x_max":279,"o":"m 279 1000 l 279 -276 l 113 -276 l 113 1000 l 279 1000 z "},"¦":{"ha":375,"x_min":26,"x_max":369,"o":"m 369 953 l 315 572 l 107 572 l 161 953 l 369 953 m 289 381 l 235 0 l 26 0 l 81 381 l 289 381 z "},"†":{"ha":789,"x_min":49,"x_max":797,"o":"m 571 953 l 504 681 l 797 708 l 769 511 l 485 539 l 406 -224 l 207 -224 l 342 539 l 49 511 l 76 708 l 372 681 l 372 953 l 571 953 z "},"ℓ":{"ha":749,"x_min":7,"x_max":754,"o":"m 374 269 q 369 228 369 240 q 394 171 369 188 q 450 154 418 154 q 599 199 510 154 l 576 43 q 466 1 533 17 q 328 -15 399 -15 q 155 31 222 -15 q 88 164 88 78 q 94 236 88 182 l 106 318 l 7 318 l 25 453 l 125 453 l 151 649 q 265 890 174 807 q 501 972 356 972 q 754 724 754 972 q 716 539 754 628 q 594 390 678 450 q 381 321 510 329 l 374 269 m 538 785 q 465 749 494 785 q 426 649 436 714 l 399 453 q 558 534 510 465 q 606 688 606 603 q 538 785 606 785 z "},"‡":{"ha":819,"x_min":-7,"x_max":813,"o":"m 586 953 l 519 681 l 813 708 l 785 511 l 503 539 l 503 357 l 449 172 l 742 200 l 714 3 l 424 31 l 424 -243 l 219 -243 l 286 31 l -7 3 l 21 200 l 304 172 l 304 357 l 357 539 l 64 511 l 92 708 l 381 681 l 381 953 l 586 953 z "},"℮":{"ha":1004,"x_min":42,"x_max":947,"o":"m 494 967 q 733 910 631 967 q 891 748 835 854 q 947 497 947 642 l 947 414 l 351 414 l 351 147 q 497 118 417 118 q 651 148 583 118 q 761 238 719 178 l 878 156 q 719 30 817 74 q 497 -14 622 -14 q 257 42 360 -14 q 98 205 154 99 q 42 457 42 311 l 42 496 q 98 748 42 642 q 256 910 154 854 q 494 967 358 967 m 351 546 l 636 546 l 636 808 q 494 835 575 835 q 351 808 413 835 l 351 546 z "},"^":{"ha":833,"x_min":-3,"x_max":736,"o":"m 561 710 l 736 0 l 544 0 l 436 486 l 190 0 l -3 0 l 368 710 l 561 710 z "},"̦":{"ha":0,"x_min":-425,"x_max":-131,"o":"m -131 -28 l -154 -193 l -215 -347 l -346 -347 l -307 -237 l -425 -237 l -396 -28 l -131 -28 z "},"ˉ":{"ha":639,"x_min":99,"x_max":540,"o":"m 540 1022 l 540 919 l 99 919 l 99 1022 l 540 1022 z "},"´":{"ha":463,"x_min":43,"x_max":410,"o":"m 408 1000 l 410 996 l 207 799 l 43 799 l 199 1000 l 408 1000 z "},"˘":{"ha":722,"x_min":94,"x_max":629,"o":"m 629 1024 q 592 944 629 985 q 494 878 556 904 q 361 851 432 851 q 228 878 290 851 q 131 944 167 904 q 94 1024 94 985 l 228 1024 q 247 1003 228 1015 q 296 981 265 990 q 361 971 326 971 q 427 981 396 971 q 478 1003 458 990 q 497 1024 497 1015 l 629 1024 z "},"ˇ":{"ha":750,"x_min":104,"x_max":668,"o":"m 668 1000 l 446 799 l 268 799 l 104 1000 l 285 1000 l 372 893 l 490 1000 l 668 1000 z "},"¸":{"ha":464,"x_min":54,"x_max":404,"o":"m 251 -24 q 361 -47 318 -24 q 404 -128 404 -71 l 404 -139 q 345 -243 404 -212 q 222 -274 286 -274 q 126 -260 171 -274 q 54 -224 82 -247 l 110 -149 q 151 -179 122 -165 q 221 -193 179 -193 q 283 -139 283 -193 q 236 -106 283 -106 l 211 -106 l 222 -24 l 251 -24 z "},"ˆ":{"ha":750,"x_min":75,"x_max":639,"o":"m 475 1000 l 639 799 l 458 799 l 371 906 l 253 799 l 75 799 l 297 1000 l 475 1000 z "},"¨":{"ha":611,"x_min":36,"x_max":582,"o":"m 276 1042 l 247 838 l 36 838 l 65 1042 l 276 1042 m 582 1042 l 553 838 l 342 838 l 371 1042 l 582 1042 z "},"˙":{"ha":389,"x_min":75,"x_max":315,"o":"m 315 1051 l 286 847 l 75 847 l 104 1051 l 315 1051 z "},"`":{"ha":463,"x_min":71,"x_max":382,"o":"m 285 1000 l 382 799 l 218 799 l 71 996 l 75 1000 l 285 1000 z "},"˝":{"ha":771,"x_min":43,"x_max":725,"o":"m 408 1000 l 410 996 l 207 799 l 43 799 l 199 1000 l 408 1000 m 724 1000 l 725 996 l 522 799 l 358 799 l 514 1000 l 724 1000 z "},"¯":{"ha":639,"x_min":99,"x_max":540,"o":"m 540 1022 l 540 919 l 99 919 l 99 1022 l 540 1022 z "},"˛":{"ha":472,"x_min":94,"x_max":365,"o":"m 282 0 q 225 -40 246 -21 q 204 -86 204 -58 q 221 -115 204 -106 q 260 -125 238 -125 q 356 -106 300 -125 l 365 -165 q 215 -199 293 -199 q 129 -178 164 -199 q 94 -115 94 -158 q 119 -52 94 -79 q 185 0 143 -25 l 282 0 z "},"˚":{"ha":472,"x_min":93,"x_max":376,"o":"m 256 1036 q 342 1002 308 1036 q 376 917 376 968 q 329 803 376 850 q 215 757 282 757 q 128 791 163 757 q 93 878 93 825 q 142 989 93 942 q 256 1036 190 1036 m 242 944 q 202 928 218 944 q 186 889 186 913 q 198 859 186 871 q 229 847 210 847 q 268 861 251 847 q 285 901 285 875 q 273 933 285 921 q 242 944 261 944 z "},"˜":{"ha":463,"x_min":-58,"x_max":586,"o":"m 586 999 q 547 902 578 947 q 469 828 517 857 q 363 800 421 800 q 305 807 332 800 q 236 829 278 814 q 178 849 203 842 q 131 856 154 856 q 85 840 106 856 q 53 800 65 825 l -58 800 q -19 897 -50 851 q 59 970 11 942 q 164 999 107 999 q 222 991 194 999 q 290 969 250 983 q 396 943 357 943 q 441 958 421 943 q 474 999 461 974 l 586 999 z "}}}
